<?xml version="1.0" encoding="UTF-8" standalone="no"?>
<svg
   xmlns:dc="http://purl.org/dc/elements/1.1/"
   xmlns:cc="http://creativecommons.org/ns#"
   xmlns:rdf="http://www.w3.org/1999/02/22-rdf-syntax-ns#"
   xmlns:svg="http://www.w3.org/2000/svg"
   xmlns="http://www.w3.org/2000/svg"
   viewBox="0 0 793.59998 1122.24"
   height="1122.24"
   width="793.59998"
   xml:space="preserve"
   id="svg2"
   version="1.1"><metadata
     id="metadata8"><rdf:RDF><cc:Work
         rdf:about=""><dc:format>image/svg+xml</dc:format><dc:type
           rdf:resource="http://purl.org/dc/dcmitype/StillImage" /></cc:Work></rdf:RDF></metadata><defs
     id="defs6"><clipPath
       id="clipPath14"
       clipPathUnits="userSpaceOnUse"><path
         id="path12"
         d="M -14.4,14.4 H 580.8 V 856.08 H -14.4 Z" /></clipPath><clipPath
       id="clipPath24"
       clipPathUnits="userSpaceOnUse"><path
         id="path22"
         d="m 36.96,698.4 h 310.199 v 13.56 H 36.96 Z" /></clipPath><clipPath
       id="clipPath48"
       clipPathUnits="userSpaceOnUse"><path
         id="path46"
         d="m 36.96,669.36 h 310.199 v 13.56 H 36.96 Z" /></clipPath><clipPath
       id="clipPath70"
       clipPathUnits="userSpaceOnUse"><path
         id="path68"
         d="m 36.96,640.32 h 310.199 v 13.559 H 36.96 Z" /></clipPath><clipPath
       id="clipPath94"
       clipPathUnits="userSpaceOnUse"><path
         id="path92"
         d="m 36.96,611.28 h 310.199 v 13.56 H 36.96 Z" /></clipPath><clipPath
       id="clipPath118"
       clipPathUnits="userSpaceOnUse"><path
         id="path116"
         d="M 36.96,582.24 H 347.159 V 595.8 H 36.96 Z" /></clipPath><clipPath
       id="clipPath138"
       clipPathUnits="userSpaceOnUse"><path
         id="path136"
         d="m 36.96,553.2 h 310.199 v 13.559 H 36.96 Z" /></clipPath><clipPath
       id="clipPath162"
       clipPathUnits="userSpaceOnUse"><path
         id="path160"
         d="m 36.96,524.16 h 310.199 v 13.56 H 36.96 Z" /></clipPath><clipPath
       id="clipPath186"
       clipPathUnits="userSpaceOnUse"><path
         id="path184"
         d="m 36.96,495.12 h 310.199 v 13.56 H 36.96 Z" /></clipPath><clipPath
       id="clipPath206"
       clipPathUnits="userSpaceOnUse"><path
         id="path204"
         d="m 36.96,466.08 h 310.199 v 13.559 H 36.96 Z" /></clipPath><clipPath
       id="clipPath226"
       clipPathUnits="userSpaceOnUse"><path
         id="path224"
         d="M 36.96,437.04 H 347.159 V 450.6 H 36.96 Z" /></clipPath><clipPath
       id="clipPath272"
       clipPathUnits="userSpaceOnUse"><path
         id="path270"
         d="m 36.96,767.52 h 309.72 v 33.6 H 36.96 Z" /></clipPath></defs><g
     clip-path="url(#clipPath14)"
     transform="matrix(1.3333333,0,0,-1.3333333,19.2,1141.44)"
     id="g10"><path
       id="path16"
       style="fill:#ffffff;fill-opacity:1;fill-rule:nonzero;stroke:none"
       d="M 36.96,320.28 H 346.799 V 801.119 H 36.96 Z" /><g
       id="g18"><g
         clip-path="url(#clipPath24)"
         id="g20"><text
           id="text28"
           style="font-variant:normal;font-weight:normal;font-stretch:normal;font-size:9.96000004px;font-family:'Cormorant SC';-inkscape-font-specification:CormorantSC-Regular;writing-mode:lr-tb;fill:#000000;fill-opacity:1;fill-rule:nonzero;stroke:none"
           transform="matrix(1,0,0,-1,107.88,701.88)"><tspan
             id="tspan26"
             y="0"
             x="0 6.7200122 11.519736 15.479832 20.040516 25.558355 30.838152 36.4785 38.759338 45.839905 50.401585 55.081787 60.002029">Ryszard Gleba</tspan></text>
<text
           id="text32"
           style="font-variant:normal;font-weight:normal;font-stretch:normal;font-size:9.96000004px;font-family:'Cormorant SC';-inkscape-font-specification:CormorantSC-Regular;writing-mode:lr-tb;fill:#000000;fill-opacity:1;fill-rule:nonzero;stroke:none"
           transform="matrix(1,0,0,-1,210,701.8799)"><tspan
             id="tspan30"
             y="0"
             x="0 6.9620399 12.602388 18.241739 23.52054 28.080229 32.760433 35.399834 37.680672 44.160648 49.920517 53.880611 58.800854 64.079651 68.639343 73.319542 80.51963">Andrzej Kostrzewa</tspan></text>
</g></g><text
       id="text36"
       style="font-variant:normal;font-weight:normal;font-stretch:normal;font-size:9.96000004px;font-family:'Cormorant SC';-inkscape-font-specification:CormorantSC-Regular;writing-mode:lr-tb;fill:#000000;fill-opacity:1;fill-rule:nonzero;stroke:none"
       transform="matrix(1,0,0,-1,113.4,687.36)"><tspan
         id="tspan34"
         y="0"
         x="0 6.7200122 11.400216 16.920048 19.798489 25.435848 30.955681 33.236519 40.317085 44.876774 49.556976 54.477215">Regina Gleba</tspan></text>
<text
       id="text40"
       style="font-variant:normal;font-weight:normal;font-stretch:normal;font-size:9.96000004px;font-family:'Cormorant SC';-inkscape-font-specification:CormorantSC-Regular;writing-mode:lr-tb;fill:#000000;fill-opacity:1;fill-rule:nonzero;stroke:none"
       transform="matrix(1,0,0,-1,210.00204,687.47952)"><tspan
         id="tspan38"
         y="0"
         x="0 5.7598681 9.7239475 15.483816 20.404057 25.923887 28.203732 33.123974 38.883839 46.083923 51.603756 56.883553 61.445232 66.244957 70.209038 74.770714 80.29055 85.689865">osoba towarzysząca</tspan></text>
<g
       id="g42"><g
         clip-path="url(#clipPath48)"
         id="g44"><text
           id="text52"
           style="font-variant:normal;font-weight:normal;font-stretch:normal;font-size:9.96000004px;font-family:'Cormorant SC';-inkscape-font-specification:CormorantSC-Regular;writing-mode:lr-tb;fill:#000000;fill-opacity:1;fill-rule:nonzero;stroke:none"
           transform="matrix(1,0,0,-1,90.6,672.96)"><tspan
             id="tspan50"
             y="0"
             x="0 6.4799762 11.999808 16.559496 19.437937 26.277468 29.155909 33.836113 39.11591 43.675594 45.955441 52.797958 57.478165 62.039845 66.960083 72.719955 77.27964">Kazimierz Deptuła</tspan></text>
<text
           id="text56"
           style="font-variant:normal;font-weight:normal;font-stretch:normal;font-size:9.96000004px;font-family:'Cormorant SC';-inkscape-font-specification:CormorantSC-Regular;writing-mode:lr-tb;fill:#000000;fill-opacity:1;fill-rule:nonzero;stroke:none"
           transform="matrix(1,0,0,-1,210,672.96)"><tspan
             id="tspan54"
             y="0"
             x="0 6.4799762 11.759772 16.320456 21.121176 25.081272 29.640961 34.561199 40.321068 44.521198 46.801044 53.640575 58.320782 62.880466 67.800705 73.560577 78.120262">Krzysztof Deptuła</tspan></text>
</g></g><text
       id="text62"
       style="font-variant:normal;font-weight:normal;font-stretch:normal;font-size:9.96000004px;font-family:'Cormorant SC';-inkscape-font-specification:CormorantSC-Regular;writing-mode:lr-tb;fill:#000000;fill-opacity:1;fill-rule:nonzero;stroke:none"
       transform="matrix(1,0,0,-1,112.92,658.32)"><tspan
         id="tspan58"
         y="0"
         x="0 5.8764 11.636268 15.839388 18.718824 24.236664 26.517504 32.037334 37.797203 43.077 48.837864 54.237179">Zofia Boruch</tspan><tspan
         id="tspan60"
         y="-0.11952"
         x="97.080116 100.32011 105.83994 111.4773 114.35574 119.9931 125.51293 127.79278 134.6353 139.3145 143.87619 148.79543 154.55629 159.11598">Janina Deptuła</tspan></text>
<g
       id="g64"><g
         clip-path="url(#clipPath70)"
         id="g66"><text
           id="text74"
           style="font-variant:normal;font-weight:normal;font-stretch:normal;font-size:9.96000004px;font-family:'Cormorant SC';-inkscape-font-specification:CormorantSC-Regular;writing-mode:lr-tb;fill:#000000;fill-opacity:1;fill-rule:nonzero;stroke:none"
           transform="matrix(1,0,0,-1,103.2,643.8)"><tspan
             id="tspan72"
             y="0"
             x="0 8.2767601 13.7946 19.074396 23.874121 28.435801 33.95364 36.234482 41.754311 47.514179 52.794971 58.55484 63.954155">Maryla Boruch</tspan></text>
<text
           id="text78"
           style="font-variant:normal;font-weight:normal;font-stretch:normal;font-size:9.96000004px;font-family:'Cormorant SC';-inkscape-font-specification:CormorantSC-Regular;writing-mode:lr-tb;fill:#000000;fill-opacity:1;fill-rule:nonzero;stroke:none"
           transform="matrix(1,0,0,-1,210,643.8)"><tspan
             id="tspan76"
             y="0"
             x="0 8.2767601 13.7946 19.074396 23.754601 29.153915 31.434755 38.514324 44.154671 47.034107 52.551949 58.191299 62.751984 65.631416">Marek Gniadzik</tspan></text>
</g></g><text
       id="text82"
       style="font-variant:normal;font-weight:normal;font-stretch:normal;font-size:9.96000004px;font-family:'Cormorant SC';-inkscape-font-specification:CormorantSC-Regular;writing-mode:lr-tb;fill:#000000;fill-opacity:1;fill-rule:nonzero;stroke:none"
       transform="matrix(1,0,0,-1,102.36,629.28)"><tspan
         id="tspan80"
         y="0"
         x="0 6.8425202 12.363348 17.643145 20.521584 26.281452 30.241549 34.802231 37.082077 42.599915 48.359783 53.63958 59.399448 64.799759">Dariusz Boruch</tspan></text>
<text
       id="text86"
       style="font-variant:normal;font-weight:normal;font-stretch:normal;font-size:9.96000004px;font-family:'Cormorant SC';-inkscape-font-specification:CormorantSC-Regular;writing-mode:lr-tb;fill:#000000;fill-opacity:1;fill-rule:nonzero;stroke:none"
       transform="matrix(1,0,0,-1,209.99772,629.28)"><tspan
         id="tspan84"
         y="0"
         x="0 6.7200122 11.519736 16.800528 21.600252 26.161932 31.679771 33.960613 41.04018 46.680527 49.559963 55.077805 60.717155 65.27784 68.157272">Cyryla Gniadzik</tspan></text>
<g
       id="g88"><g
         clip-path="url(#clipPath94)"
         id="g90"><text
           id="text98"
           style="font-variant:normal;font-weight:normal;font-stretch:normal;font-size:9.96000004px;font-family:'Cormorant SC';-inkscape-font-specification:CormorantSC-Regular;writing-mode:lr-tb;fill:#000000;fill-opacity:1;fill-rule:nonzero;stroke:none"
           transform="matrix(1,0,0,-1,99.36,614.76)"><tspan
             id="tspan96"
             y="0"
             x="0 6.7200122 11.519736 15.479832 20.03952 25.560349 30.840143 36.479496 38.760338 45.479351 50.040035 55.559868 60.121548 65.758911 68.637344">Ryszard Czapnik</tspan></text>
<text
           id="text102"
           style="font-variant:normal;font-weight:normal;font-stretch:normal;font-size:9.96000004px;font-family:'Cormorant SC';-inkscape-font-specification:CormorantSC-Regular;writing-mode:lr-tb;fill:#000000;fill-opacity:1;fill-rule:nonzero;stroke:none"
           transform="matrix(1,0,0,-1,210,614.8799)"><tspan
             id="tspan100"
             y="0"
             x="0 6.9600482 12.597408 18.236759 23.516556 28.07724 32.756447 35.396843 37.676689 44.519207 49.198418 53.760098 58.67934 64.439209 68.999893">Andrzej Deptuła</tspan></text>
</g></g><text
       id="text106"
       style="font-variant:normal;font-weight:normal;font-stretch:normal;font-size:9.96000004px;font-family:'Cormorant SC';-inkscape-font-specification:CormorantSC-Regular;writing-mode:lr-tb;fill:#000000;fill-opacity:1;fill-rule:nonzero;stroke:none"
       transform="matrix(1,0,0,-1,101.64,600.24)"><tspan
         id="tspan104"
         y="0"
         x="0 6.8425202 12.363348 18.000708 23.760576 28.680817 34.200649 36.481487 43.2015 47.762184 53.282017 57.843697 63.481056 66.359497">Danuta Czapnik</tspan></text>
<text
       id="text110"
       style="font-variant:normal;font-weight:normal;font-stretch:normal;font-size:9.96000004px;font-family:'Cormorant SC';-inkscape-font-specification:CormorantSC-Regular;writing-mode:lr-tb;fill:#000000;fill-opacity:1;fill-rule:nonzero;stroke:none"
       transform="matrix(1,0,0,-1,210.0048,600.35952)"><tspan
         id="tspan108"
         y="0"
         x="0 8.2767601 13.7946 19.074396 23.634085 29.151924 34.792271 40.432621 45.950459 48.2313 55.071827 59.751038 64.311722 69.231956 74.991829 79.551514">Marzanna Deptuła</tspan></text>
<g
       id="g112"><g
         clip-path="url(#clipPath118)"
         id="g114"><text
           id="text122"
           style="font-variant:normal;font-weight:normal;font-stretch:normal;font-size:9.96000004px;font-family:'Cormorant SC';-inkscape-font-specification:CormorantSC-Regular;writing-mode:lr-tb;fill:#000000;fill-opacity:1;fill-rule:nonzero;stroke:none"
           transform="matrix(1,0,0,-1,108.24,585.72)"><tspan
             id="tspan120"
             y="0"
             x="0 5.880384 10.559592 16.196953 21.95682 27.594179 29.875019 36.595032 41.15472 46.674553 51.236233 56.873592 59.752033">Zenon Czapnik</tspan></text>
<text
           id="text126"
           style="font-variant:normal;font-weight:normal;font-stretch:normal;font-size:9.96000004px;font-family:'Cormorant SC';-inkscape-font-specification:CormorantSC-Regular;writing-mode:lr-tb;fill:#000000;fill-opacity:1;fill-rule:nonzero;stroke:none"
           transform="matrix(1,0,0,-1,210,585.84)"><tspan
             id="tspan124"
             y="0"
             x="0 7.0795679 12.36036 17.878201 22.437887 27.238607 32.87796 38.395802 40.67664 47.396652 51.956341 57.474178 62.034863 67.674217 70.554649">Grażyna Czapnik</tspan></text>
</g></g><text
       id="text130"
       style="font-variant:normal;font-weight:normal;font-stretch:normal;font-size:9.96000004px;font-family:'Cormorant SC';-inkscape-font-specification:CormorantSC-Regular;writing-mode:lr-tb;fill:#000000;fill-opacity:1;fill-rule:nonzero;stroke:none"
       transform="matrix(1,0,0,-1,112.08,571.2)"><tspan
         id="tspan128"
         y="0"
         x="0 6.9600482 12.597408 18.234768 23.754601 26.03544 32.754456 37.31514 42.834972 47.396652 53.034012 55.912453 97.916763 101.15675 106.67658 112.31394 114.59478 121.31479 125.87448 131.39432 135.95599 141.59335 144.47179">Anna CzapnikJan Czapnik</tspan></text>
<g
       id="g132"><g
         clip-path="url(#clipPath138)"
         id="g134"><text
           id="text142"
           style="font-variant:normal;font-weight:normal;font-stretch:normal;font-size:9.96000004px;font-family:'Cormorant SC';-inkscape-font-specification:CormorantSC-Regular;writing-mode:lr-tb;fill:#000000;fill-opacity:1;fill-rule:nonzero;stroke:none"
           transform="matrix(1,0,0,-1,78.72,556.8)"><tspan
             id="tspan140"
             y="0"
             x="0 6.4799762 11.759772 16.321451 21.122171 25.081272 29.642952 34.56319 40.322063 44.522198 46.80204 52.202351 57.722183 64.922272 69.481956 75.241821 82.44191 86.405991 91.806297">Krzysztof Pawłowski</tspan></text>
<text
           id="text146"
           style="font-variant:normal;font-weight:normal;font-stretch:normal;font-size:9.96000004px;font-family:'Cormorant SC';-inkscape-font-specification:CormorantSC-Regular;writing-mode:lr-tb;fill:#000000;fill-opacity:1;fill-rule:nonzero;stroke:none"
           transform="matrix(1,0,0,-1,210,556.6801)"><tspan
             id="tspan144"
             y="0"
             x="0 9.239892 14.759724 20.397083 26.036436 31.557264 33.838104 40.558117 45.117805 50.637634 55.199314 60.836678 63.715115">Wanda Czapnik</tspan></text>
</g></g><text
       id="text150"
       style="font-variant:normal;font-weight:normal;font-stretch:normal;font-size:9.96000004px;font-family:'Cormorant SC';-inkscape-font-specification:CormorantSC-Regular;writing-mode:lr-tb;fill:#000000;fill-opacity:1;fill-rule:nonzero;stroke:none"
       transform="matrix(1,0,0,-1,102.48,542.28)"><tspan
         id="tspan148"
         y="0"
         x="0 5.4003119 12.601392 18.121223 20.401068 25.80138 31.321213 38.522293 43.081982 48.841846 56.042927 60.003025 65.401344">Ewa Pawłowska</tspan></text>
<text
       id="text154"
       style="font-variant:normal;font-weight:normal;font-stretch:normal;font-size:9.96000004px;font-family:'Cormorant SC';-inkscape-font-specification:CormorantSC-Regular;writing-mode:lr-tb;fill:#000000;fill-opacity:1;fill-rule:nonzero;stroke:none"
       transform="matrix(1,0,0,-1,209.9982,542.16048)"><tspan
         id="tspan152"
         y="0"
         x="0 5.4003119 9.9619923 15.479832 17.760672 22.679916 25.560349 30.240553 32.880947 38.280266">Ela Siejka</tspan></text>
<g
       id="g156"><g
         clip-path="url(#clipPath162)"
         id="g158"><text
           id="text166"
           style="font-variant:normal;font-weight:normal;font-stretch:normal;font-size:9.96000004px;font-family:'Cormorant SC';-inkscape-font-specification:CormorantSC-Regular;writing-mode:lr-tb;fill:#000000;fill-opacity:1;fill-rule:nonzero;stroke:none"
           transform="matrix(1,0,0,-1,121.44,527.76)"><tspan
             id="tspan164"
             y="0"
             x="0 3.2399881 8.7578278 14.398176 16.679016 23.158993 27.839195 33.479546 38.03923 40.919662 46.679531">Jan Kędzior</tspan></text>
<text
           id="text170"
           style="font-variant:normal;font-weight:normal;font-stretch:normal;font-size:9.96000004px;font-family:'Cormorant SC';-inkscape-font-specification:CormorantSC-Regular;writing-mode:lr-tb;fill:#000000;fill-opacity:1;fill-rule:nonzero;stroke:none"
           transform="matrix(1,0,0,-1,210,527.64)"><tspan
             id="tspan168"
             y="0"
             x="0 3.2399881 8.75982 14.39718 16.67802 21.598261 24.4767 29.156904 31.7973 37.196617">Jan Siejka</tspan></text>
</g></g><text
       id="text174"
       style="font-variant:normal;font-weight:normal;font-stretch:normal;font-size:9.96000004px;font-family:'Cormorant SC';-inkscape-font-specification:CormorantSC-Regular;writing-mode:lr-tb;fill:#000000;fill-opacity:1;fill-rule:nonzero;stroke:none"
       transform="matrix(1,0,0,-1,101.64,513.24)"><tspan
         id="tspan172"
         y="0"
         x="0 6.8395319 12.357372 17.996723 23.757587 28.676832 34.194672 36.475513 42.955486 47.635693 53.276039 57.835728 60.715164 66.476028">Danuta Kędzior</tspan></text>
<text
       id="text178"
       style="font-variant:normal;font-weight:normal;font-stretch:normal;font-size:9.96000004px;font-family:'Cormorant SC';-inkscape-font-specification:CormorantSC-Regular;writing-mode:lr-tb;fill:#000000;fill-opacity:1;fill-rule:nonzero;stroke:none"
       transform="matrix(1,0,0,-1,210.0048,513.12048)"><tspan
         id="tspan176"
         y="0"
         x="0 6.9620399 12.47988 18.120228 20.999664 25.679869 29.639963 34.200649 39.60096 45.120792 47.40163 56.644512 62.404381 65.043777 70.684128">Agnieszka Wojda</tspan></text>
<g
       id="g180"><g
         clip-path="url(#clipPath186)"
         id="g182"><text
           id="text190"
           style="font-variant:normal;font-weight:normal;font-stretch:normal;font-size:9.96000004px;font-family:'Cormorant SC';-inkscape-font-specification:CormorantSC-Regular;writing-mode:lr-tb;fill:#000000;fill-opacity:1;fill-rule:nonzero;stroke:none"
           transform="matrix(1,0,0,-1,85.2,498.72)"><tspan
             id="tspan188"
             y="0"
             x="0 9.239892 12.120324 16.799532 20.759628 25.320312 30.840143 38.041225 40.321068 45.721378 51.241211 58.442291 63.00198 68.761848 75.962929 79.923027 85.321342">Wiesław Pawłowski</tspan></text>
<text
           id="text194"
           style="font-variant:normal;font-weight:normal;font-stretch:normal;font-size:9.96000004px;font-family:'Cormorant SC';-inkscape-font-specification:CormorantSC-Regular;writing-mode:lr-tb;fill:#000000;fill-opacity:1;fill-rule:nonzero;stroke:none"
           transform="matrix(1,0,0,-1,210,498.72)"><tspan
             id="tspan192"
             y="0"
             x="0 9.2428799 13.802568 19.323397 24.962748 29.642952 35.043262 37.323109 46.565987 52.326851 54.966251 60.606602">Władek Wojda</tspan></text>
</g></g><text
       id="text198"
       style="font-variant:normal;font-weight:normal;font-stretch:normal;font-size:9.96000004px;font-family:'Cormorant SC';-inkscape-font-specification:CormorantSC-Regular;writing-mode:lr-tb;fill:#000000;fill-opacity:1;fill-rule:nonzero;stroke:none"
       transform="matrix(1,0,0,-1,93.12,484.2)"><tspan
         id="tspan196"
         y="0"
         x="0 8.2767601 13.7946 19.074396 21.953833 27.471672 29.752512 35.152824 40.670666 47.870747 52.430435 58.190304 65.390388 69.350487 74.750793 116.8806 122.28091 126.84259 131.40228 136.32253 139.20296 143.88316 148.8024 154.32024 156.60107 162.96153 168.72141 175.56094 181.07878 185.03888 187.91931 192.5995 199.79959 202.67903 208.07935">Maria PawłowskaElżbieta Tomasiewicz</tspan></text>
<g
       id="g200"><g
         clip-path="url(#clipPath206)"
         id="g202"><text
           id="text210"
           style="font-variant:normal;font-weight:normal;font-stretch:normal;font-size:9.96000004px;font-family:'Cormorant SC';-inkscape-font-specification:CormorantSC-Regular;writing-mode:lr-tb;fill:#000000;fill-opacity:1;fill-rule:nonzero;stroke:none"
           transform="matrix(1,0,0,-1,92.16,469.56)"><tspan
             id="tspan208"
             y="0"
             x="0 6.7200122 11.400216 16.800528 21.600252 26.161932 29.042364 34.560204 36.841045 43.921608 49.201405 53.761093 58.561813 65.761894 71.279739 76.680046">Cecylia Grzywacz</tspan></text>
<text
           id="text214"
           style="font-variant:normal;font-weight:normal;font-stretch:normal;font-size:9.96000004px;font-family:'Cormorant SC';-inkscape-font-specification:CormorantSC-Regular;writing-mode:lr-tb;fill:#000000;fill-opacity:1;fill-rule:nonzero;stroke:none"
           transform="matrix(1,0,0,-1,210,469.56)"><tspan
             id="tspan212"
             y="0"
             x="0 6.4799762 11.999808 16.559496 19.437937 26.277468 29.155909 33.836113 39.11591 43.675594 45.955441 52.315895 58.075764 64.915298 70.436127 74.395226 77.273666 81.953865 89.153954 92.032394 97.432701">Kazimierz Tomasiewicz</tspan></text>
</g></g><text
       id="text218"
       style="font-variant:normal;font-weight:normal;font-stretch:normal;font-size:9.96000004px;font-family:'Cormorant SC';-inkscape-font-specification:CormorantSC-Regular;writing-mode:lr-tb;fill:#000000;fill-opacity:1;fill-rule:nonzero;stroke:none"
       transform="matrix(1,0,0,-1,92.88,455.04)"><tspan
         id="tspan216"
         y="0"
         x="0 6.4799762 11.759772 16.560492 20.520588 25.440828 30.241549 35.881897 41.40173 43.682568 50.642616 56.282963 61.083683 65.043777 69.60347 75.003777 117.11964 120.35963 126.1195 131.63733 137.27768 142.91803 148.43587 150.71671 158.39687 163.79718 169.07698 174.59482 178.55492 183.95523">Krystyna AnyszkaJoanna Okraska</tspan></text>
<g
       id="g220"><g
         clip-path="url(#clipPath226)"
         id="g222"><text
           id="text230"
           style="font-variant:normal;font-weight:normal;font-stretch:normal;font-size:9.96000004px;font-family:'Cormorant SC';-inkscape-font-specification:CormorantSC-Regular;writing-mode:lr-tb;fill:#000000;fill-opacity:1;fill-rule:nonzero;stroke:none"
           transform="matrix(1,0,0,-1,101.16,440.52)"><tspan
             id="tspan228"
             y="0"
             x="0 8.2767601 13.7946 19.074396 21.953833 27.471672 33.111023 35.391865 42.350918 47.991264 52.790989 56.752079 61.311768 66.712082">Marian Anyszka</tspan></text>
<text
           id="text234"
           style="font-variant:normal;font-weight:normal;font-stretch:normal;font-size:9.96000004px;font-family:'Cormorant SC';-inkscape-font-specification:CormorantSC-Regular;writing-mode:lr-tb;fill:#000000;fill-opacity:1;fill-rule:nonzero;stroke:none"
           transform="matrix(1,0,0,-1,210,440.64)"><tspan
             id="tspan232"
             y="0"
             x="0 4.9202399 9.8404799 15.35832 20.997671 23.878103 27.8382 32.397888 37.91573 45.11581 47.396652 55.076809 60.476124 65.756912 71.274757 75.234856 80.635162">Stanisław Okraska</tspan></text>
</g></g><text
       id="text240"
       style="font-variant:normal;font-weight:normal;font-stretch:normal;font-size:9.96000004px;font-family:'Cormorant SC';-inkscape-font-specification:CormorantSC-Regular;writing-mode:lr-tb;fill:#000000;fill-opacity:1;fill-rule:nonzero;stroke:none"
       transform="matrix(1,0,0,-1,109.92,426)"><tspan
         id="tspan236"
         y="0"
         x="0 6.3594599 11.039664 16.320456 21.00066 24.959761 30.4776 32.758438 38.158752 41.038189 46.799053 52.07885 57.838715">Teresa Piorun</tspan><tspan
         id="tspan238"
         y="-0.11952"
         x="100.07808 105.47839 110.04007 114.59976 119.52 122.40043 127.08064 131.99988 137.51772 139.79855 146.75861 152.03841 156.95865 162.47649 168.11684 172.07693 177.47723">Elżbieta Urbańska</tspan></text>
<text
       id="text244"
       style="font-variant:normal;font-weight:normal;font-stretch:normal;font-size:9.96000004px;font-family:'Cormorant SC';-inkscape-font-specification:CormorantSC-Regular;writing-mode:lr-tb;fill:#000000;fill-opacity:1;fill-rule:nonzero;stroke:none"
       transform="matrix(1,0,0,-1,107.04156,411.47832)"><tspan
         id="tspan242"
         y="0"
         x="0 7.5596399 12.239844 17.877205 23.157 27.956724 33.357037 35.637875 41.038189 43.91663 49.676495 54.957287 60.717155">Henryk Piorun</tspan></text>
<text
       id="text248"
       style="font-variant:normal;font-weight:normal;font-stretch:normal;font-size:9.96000004px;font-family:'Cormorant SC';-inkscape-font-specification:CormorantSC-Regular;writing-mode:lr-tb;fill:#000000;fill-opacity:1;fill-rule:nonzero;stroke:none"
       transform="matrix(1,0,0,-1,209.99808,411.59784)"><tspan
         id="tspan246"
         y="0"
         x="0 6.4799762 11.759772 16.321451 21.122171 25.086252 29.647932 34.568172 40.328041 44.527176 46.808018 53.767067 59.047859 63.967106 69.486938 75.127281 79.091362 84.490677">Krzysztof Urbańśki</tspan></text>
<text
       id="text252"
       style="font-variant:normal;font-weight:normal;font-stretch:normal;font-size:9.96000004px;font-family:'Cormorant SC';-inkscape-font-specification:CormorantSC-Regular;writing-mode:lr-tb;fill:#000000;fill-opacity:1;fill-rule:nonzero;stroke:none"
       transform="matrix(1,0,0,-1,93.35652,396.95664)"><tspan
         id="tspan250"
         y="0"
         x="0 8.2767601 14.037624 19.676975 22.557407 27.95772 33.475559 35.756401 44.033161 49.79303 54.35471 59.872547 65.152344 69.112442 74.512749">Monika Mularska</tspan></text>
<text
       id="text256"
       style="font-variant:normal;font-weight:normal;font-stretch:normal;font-size:9.96000004px;font-family:'Cormorant SC';-inkscape-font-specification:CormorantSC-Regular;writing-mode:lr-tb;fill:#000000;fill-opacity:1;fill-rule:nonzero;stroke:none"
       transform="matrix(1,0,0,-1,209.99808,396.95664)"><tspan
         id="tspan254"
         y="0"
         x="0 6.4799762 11.997816 16.918056 22.435896 27.716688 32.276375 37.076099 42.71645 48.234287 50.515129 56.035957 61.795822 67.315659 73.075523 78.475838 83.876144">Katarzyna Bogucka</tspan></text>
<text
       id="text260"
       style="font-variant:normal;font-weight:normal;font-stretch:normal;font-size:9.96000004px;font-family:'Cormorant SC';-inkscape-font-specification:CormorantSC-Regular;writing-mode:lr-tb;fill:#000000;fill-opacity:1;fill-rule:nonzero;stroke:none"
       transform="matrix(1,0,0,-1,93.237,382.43496)"><tspan
         id="tspan258"
         y="0"
         x="0 8.2767601 13.7946 19.074396 21.953833 27.713699 31.674791 36.234482 38.51532 46.79208 52.552944 57.114624 62.632465 67.912262 71.872353 77.272667">Mariusz Mularski</tspan></text>
<text
       id="text264"
       style="font-variant:normal;font-weight:normal;font-stretch:normal;font-size:9.96000004px;font-family:'Cormorant SC';-inkscape-font-specification:CormorantSC-Regular;writing-mode:lr-tb;fill:#000000;fill-opacity:1;fill-rule:nonzero;stroke:none"
       transform="matrix(1,0,0,-1,209.99808,382.55448)"><tspan
         id="tspan262"
         y="0"
         x="0 4.9202399 9.8404799 15.35832 20.998669 23.878103 27.8382 32.397888 37.91573 45.11581 47.396652 52.916485 58.676353 64.197182 69.957047 75.356361 80.756676">Stanisław Bogucki</tspan></text>
<g
       id="g266"><g
         clip-path="url(#clipPath272)"
         id="g268"><text
           id="text276"
           style="font-variant:normal;font-weight:normal;font-stretch:normal;font-size:24px;font-family:England;-inkscape-font-specification:England;writing-mode:lr-tb;fill:#000000;fill-opacity:1;fill-rule:nonzero;stroke:#000000;stroke-width:0.68599999;stroke-linecap:butt;stroke-linejoin:miter;stroke-miterlimit:10;stroke-dasharray:none;stroke-opacity:1"
           transform="matrix(1,0,0,-1,163.32,779.04)"><tspan
             id="tspan274"
             y="0"
             x="0 15.6 25.440001 33.360001 43.200001 49.200001">Stół 2</tspan></text>
</g></g></g></svg>