<?xml version="1.0" encoding="UTF-8" standalone="no"?>
<svg
   xmlns:dc="http://purl.org/dc/elements/1.1/"
   xmlns:cc="http://creativecommons.org/ns#"
   xmlns:rdf="http://www.w3.org/1999/02/22-rdf-syntax-ns#"
   xmlns:svg="http://www.w3.org/2000/svg"
   xmlns="http://www.w3.org/2000/svg"
   viewBox="0 0 793.59998 1122.24"
   height="1122.24"
   width="793.59998"
   xml:space="preserve"
   id="svg2"
   version="1.1"><metadata
     id="metadata8"><rdf:RDF><cc:Work
         rdf:about=""><dc:format>image/svg+xml</dc:format><dc:type
           rdf:resource="http://purl.org/dc/dcmitype/StillImage" /></cc:Work></rdf:RDF></metadata><defs
     id="defs6"><clipPath
       id="clipPath14"
       clipPathUnits="userSpaceOnUse"><path
         id="path12"
         d="M -14.4,14.4 H 580.8 V 856.08 H -14.4 Z" /></clipPath><clipPath
       id="clipPath24"
       clipPathUnits="userSpaceOnUse"><path
         id="path22"
         d="m 36.96,698.4 h 313.439 v 13.56 H 36.96 Z" /></clipPath><clipPath
       id="clipPath46"
       clipPathUnits="userSpaceOnUse"><path
         id="path44"
         d="m 36.96,669.36 h 313.439 v 13.56 H 36.96 Z" /></clipPath><clipPath
       id="clipPath68"
       clipPathUnits="userSpaceOnUse"><path
         id="path66"
         d="m 36.96,640.32 h 313.439 v 13.559 H 36.96 Z" /></clipPath><clipPath
       id="clipPath88"
       clipPathUnits="userSpaceOnUse"><path
         id="path86"
         d="m 36.96,611.28 h 313.439 v 13.56 H 36.96 Z" /></clipPath><clipPath
       id="clipPath108"
       clipPathUnits="userSpaceOnUse"><path
         id="path106"
         d="M 36.96,582.24 H 350.399 V 595.8 H 36.96 Z" /></clipPath><clipPath
       id="clipPath130"
       clipPathUnits="userSpaceOnUse"><path
         id="path128"
         d="m 36.96,553.2 h 313.439 v 13.559 H 36.96 Z" /></clipPath><clipPath
       id="clipPath150"
       clipPathUnits="userSpaceOnUse"><path
         id="path148"
         d="m 36.96,524.16 h 313.439 v 13.56 H 36.96 Z" /></clipPath><clipPath
       id="clipPath170"
       clipPathUnits="userSpaceOnUse"><path
         id="path168"
         d="m 36.96,495.12 h 313.439 v 13.56 H 36.96 Z" /></clipPath><clipPath
       id="clipPath192"
       clipPathUnits="userSpaceOnUse"><path
         id="path190"
         d="m 36.96,466.08 h 313.439 v 13.559 H 36.96 Z" /></clipPath><clipPath
       id="clipPath212"
       clipPathUnits="userSpaceOnUse"><path
         id="path210"
         d="M 36.96,437.04 H 350.399 V 450.6 H 36.96 Z" /></clipPath><clipPath
       id="clipPath238"
       clipPathUnits="userSpaceOnUse"><path
         id="path236"
         d="m 36.96,767.52 h 312.96 v 33.6 H 36.96 Z" /></clipPath></defs><g
     clip-path="url(#clipPath14)"
     transform="matrix(1.3333333,0,0,-1.3333333,19.2,1141.44)"
     id="g10"><path
       id="path16"
       style="fill:#ffffff;fill-opacity:1;fill-rule:nonzero;stroke:none"
       d="M 36.96,320.28 H 350.039 V 801.119 H 36.96 Z" /><g
       id="g18"><g
         clip-path="url(#clipPath24)"
         id="g20"><text
           id="text28"
           style="font-variant:normal;font-weight:normal;font-stretch:normal;font-size:9.96000004px;font-family:'Cormorant SC';-inkscape-font-specification:CormorantSC-Regular;writing-mode:lr-tb;fill:#000000;fill-opacity:1;fill-rule:nonzero;stroke:none"
           transform="matrix(1,0,0,-1,101.4,702)"><tspan
             id="tspan26"
             y="0"
             x="0 5.1602759 10.920144 16.318464 21.839293 25.799389 30.359076 32.63892 38.03923 43.799099 48.358788 54.119652 61.320732 65.28083 70.679146">Łukasz Popowski</tspan></text>
<text
           id="text32"
           style="font-variant:normal;font-weight:normal;font-stretch:normal;font-size:9.96000004px;font-family:'Cormorant SC';-inkscape-font-specification:CormorantSC-Regular;writing-mode:lr-tb;fill:#000000;fill-opacity:1;fill-rule:nonzero;stroke:none"
           transform="matrix(1,0,0,-1,212.4,701.9999)"><tspan
             id="tspan30"
             y="0"
             x="0 6.9600482 11.521728 16.201933 21.602243 25.56234 31.080179 36.720528 42.359879 47.640671 53.158512 55.43935 60.839664 66.599533 72.239883 77.519676 83.037514 87.598198 92.997513">Aleksandra Podrażka</tspan></text>
</g></g><text
       id="text38"
       style="font-variant:normal;font-weight:normal;font-stretch:normal;font-size:9.96000004px;font-family:'Cormorant SC';-inkscape-font-specification:CormorantSC-Regular;writing-mode:lr-tb;fill:#000000;fill-opacity:1;fill-rule:nonzero;stroke:none"
       transform="matrix(1,0,0,-1,91.44,687.36)"><tspan
         id="tspan34"
         y="0"
         x="0 3.359508 7.9201918 13.438032 18.358273 23.038477 27.600157 32.161835 37.679676 39.960518 45.360828 51.120697 55.680386 61.44025 68.640335 72.600433 78.000748">Izabella Popowska</tspan><tspan
         id="tspan36"
         y="-0.11952"
         x="120.9642 128.64336 132.60744 138.36731 143.28654 148.80737 151.08722 157.44669 163.20656 170.40663 175.92647 181.20627 185.76794 190.56767 194.53175 199.09343 204.61327 210.01357">Osoba Towarzysząca</tspan></text>
<g
       id="g40"><g
         clip-path="url(#clipPath46)"
         id="g42"><text
           id="text50"
           style="font-variant:normal;font-weight:normal;font-stretch:normal;font-size:9.96000004px;font-family:'Cormorant SC';-inkscape-font-specification:CormorantSC-Regular;writing-mode:lr-tb;fill:#000000;fill-opacity:1;fill-rule:nonzero;stroke:none"
           transform="matrix(1,0,0,-1,105.72,672.96)"><tspan
             id="tspan48"
             y="0"
             x="0 5.4003119 10.918152 18.118237 22.798441 27.358128 29.638968 35.515369 41.033207 45.953449 51.713318 56.993111 60.953209 66.353523">Paweł Zatorski</tspan></text>
<text
           id="text54"
           style="font-variant:normal;font-weight:normal;font-stretch:normal;font-size:9.96000004px;font-family:'Cormorant SC';-inkscape-font-specification:CormorantSC-Regular;writing-mode:lr-tb;fill:#000000;fill-opacity:1;fill-rule:nonzero;stroke:none"
           transform="matrix(1,0,0,-1,212.4,672.84)"><tspan
             id="tspan52"
             y="0"
             x="0 8.2767601 14.037624 19.676975 22.557407 27.95772 33.475559 35.756401 40.796162 45.476364 50.038044 52.918476 58.438309">Monika Feliga</tspan></text>
</g></g><text
       id="text60"
       style="font-variant:normal;font-weight:normal;font-stretch:normal;font-size:9.96000004px;font-family:'Cormorant SC';-inkscape-font-specification:CormorantSC-Regular;writing-mode:lr-tb;fill:#000000;fill-opacity:1;fill-rule:nonzero;stroke:none"
       transform="matrix(1,0,0,-1,87.48,658.32)"><tspan
         id="tspan56"
         y="0"
         x="0 6.4799762 11.997816 17.277613 23.038477 27.600157 30.480589 36.119942 41.637779 43.918621 49.318932 55.0788 59.638489 65.398354 72.598442 76.558533 81.958847">Karolina Popowska</tspan><tspan
         id="tspan58"
         y="-0.11952"
         x="124.91832 132.59747 136.56155 142.32143 147.24068 152.76151 155.04135 161.4008 167.16068 174.36076 179.88058 185.16039 189.72206 194.52179 198.48587 203.04755 208.56738 213.9677">Osoba Towarzysząca</tspan></text>
<g
       id="g62"><g
         clip-path="url(#clipPath68)"
         id="g64"><text
           id="text72"
           style="font-variant:normal;font-weight:normal;font-stretch:normal;font-size:9.96000004px;font-family:'Cormorant SC';-inkscape-font-specification:CormorantSC-Regular;writing-mode:lr-tb;fill:#000000;fill-opacity:1;fill-rule:nonzero;stroke:none"
           transform="matrix(1,0,0,-1,80.4,643.92)"><tspan
             id="tspan70"
             y="0"
             x="0 7.6791601 11.64324 17.403109 22.322351 27.84318 30.123024 36.482483 42.242352 49.442436 54.962269 60.242065 64.803741 69.60347 73.567551 78.129227 83.649063 89.04937">Osoba Towarzysząca</tspan></text>
<text
           id="text76"
           style="font-variant:normal;font-weight:normal;font-stretch:normal;font-size:9.96000004px;font-family:'Cormorant SC';-inkscape-font-specification:CormorantSC-Regular;writing-mode:lr-tb;fill:#000000;fill-opacity:1;fill-rule:nonzero;stroke:none"
           transform="matrix(1,0,0,-1,212.4,643.92)"><tspan
             id="tspan74"
             y="0"
             x="0 5.4003119 10.918152 16.67802 21.2397 24.120132 29.760481 35.27832 37.559158 44.279171 49.079891 56.279976 59.159412 64.799759 68.759857 74.160172">Paulina Cywińska</tspan></text>
</g></g><text
       id="text80"
       style="font-variant:normal;font-weight:normal;font-stretch:normal;font-size:9.96000004px;font-family:'Cormorant SC';-inkscape-font-specification:CormorantSC-Regular;writing-mode:lr-tb;fill:#000000;fill-opacity:1;fill-rule:nonzero;stroke:none"
       transform="matrix(1,0,0,-1,111.24,629.28)"><tspan
         id="tspan78"
         y="0"
         x="0 5.5198321 10.200036 15.717876 20.638117 26.155956 28.436796 35.156807 39.716496 45.234337 49.794025 55.434372 58.314804 101.16372 109.44048 114.95832 120.23811 125.63743 130.31764 134.87932 137.16016 143.64014 149.39999 153.95969 158.63989">Beata CzapnikMarcel Koper</tspan></text>
<g
       id="g82"><g
         clip-path="url(#clipPath88)"
         id="g84"><text
           id="text92"
           style="font-variant:normal;font-weight:normal;font-stretch:normal;font-size:9.96000004px;font-family:'Cormorant SC';-inkscape-font-specification:CormorantSC-Regular;writing-mode:lr-tb;fill:#000000;fill-opacity:1;fill-rule:nonzero;stroke:none"
           transform="matrix(1,0,0,-1,118.32,614.76)"><tspan
             id="tspan90"
             y="0"
             x="0 8.2767601 13.7946 19.074396 24.473713 27.354143 32.994492 35.275333 40.795162 46.555031 51.835823">Marcin Bury</tspan></text>
<text
           id="text96"
           style="font-variant:normal;font-weight:normal;font-stretch:normal;font-size:9.96000004px;font-family:'Cormorant SC';-inkscape-font-specification:CormorantSC-Regular;writing-mode:lr-tb;fill:#000000;fill-opacity:1;fill-rule:nonzero;stroke:none"
           transform="matrix(1,0,0,-1,212.4,614.8799)"><tspan
             id="tspan94"
             y="0"
             x="0 6.4799762 9.3584156 14.995776 20.515608 26.03544 28.31628 37.556171 42.835968 48.595837 53.516075 58.196281">Kinga Wróbel</tspan></text>
</g></g><text
       id="text100"
       style="font-variant:normal;font-weight:normal;font-stretch:normal;font-size:9.96000004px;font-family:'Cormorant SC';-inkscape-font-specification:CormorantSC-Regular;writing-mode:lr-tb;fill:#000000;fill-opacity:1;fill-rule:nonzero;stroke:none"
       transform="matrix(1,0,0,-1,109.56,600.24)"><tspan
         id="tspan98"
         y="0"
         x="0 6.8425202 12.603384 19.442917 22.321356 27.958715 30.837156 36.236473 41.756306 44.037144 49.554985 55.314854 60.594646 102.837 109.55701 115.31688 120.23712 124.91732 130.19711 135.11636 137.3972 142.31645 145.19489 149.87509 152.5145 157.91481">Dominika BuryRobert Siejka</tspan></text>
<g
       id="g102"><g
         clip-path="url(#clipPath108)"
         id="g104"><text
           id="text112"
           style="font-variant:normal;font-weight:normal;font-stretch:normal;font-size:9.96000004px;font-family:'Cormorant SC';-inkscape-font-specification:CormorantSC-Regular;writing-mode:lr-tb;fill:#000000;fill-opacity:1;fill-rule:nonzero;stroke:none"
           transform="matrix(1,0,0,-1,118.44,585.72)"><tspan
             id="tspan110"
             y="0"
             x="0 6.9620399 12.24084 17.161079 22.920948 28.199747 30.479591 35.399834 38.279266 42.959473 45.598873 50.998188">Artur Siejka</tspan></text>
<text
           id="text116"
           style="font-variant:normal;font-weight:normal;font-stretch:normal;font-size:9.96000004px;font-family:'Cormorant SC';-inkscape-font-specification:CormorantSC-Regular;writing-mode:lr-tb;fill:#000000;fill-opacity:1;fill-rule:nonzero;stroke:none"
           transform="matrix(1,0,0,-1,212.4,585.84)"><tspan
             id="tspan114"
             y="0"
             x="0 6.9600482 12.47988 17.997721 22.917959 28.435801 30.71664 35.635883 40.196568 45.956436 52.795967">Agata Słoma</tspan></text>
</g></g><text
       id="text122"
       style="font-variant:normal;font-weight:normal;font-stretch:normal;font-size:9.96000004px;font-family:'Cormorant SC';-inkscape-font-specification:CormorantSC-Regular;writing-mode:lr-tb;fill:#000000;fill-opacity:1;fill-rule:nonzero;stroke:none"
       transform="matrix(1,0,0,-1,86.52,571.2)"><tspan
         id="tspan118"
         y="0"
         x="0 8.2767601 13.7946 19.314432 24.953785 30.471624 35.033302 39.713509 45.353855 50.871696 53.152534 59.872547 64.432236 69.950073 74.509766 80.150108 83.029549">Magdalena Czapnik</tspan><tspan
         id="tspan120"
         y="-0.11952"
         x="125.88444 134.16119 137.04163 142.44194 148.68188 154.19972 158.75941 161.04025 167.76027 172.31995 177.8378 182.39748 188.03783 190.91826">Michał Czapnik</tspan></text>
<g
       id="g124"><g
         clip-path="url(#clipPath130)"
         id="g126"><text
           id="text134"
           style="font-variant:normal;font-weight:normal;font-stretch:normal;font-size:9.96000004px;font-family:'Cormorant SC';-inkscape-font-specification:CormorantSC-Regular;writing-mode:lr-tb;fill:#000000;fill-opacity:1;fill-rule:nonzero;stroke:none"
           transform="matrix(1,0,0,-1,110.04,556.8)"><tspan
             id="tspan132"
             y="0"
             x="0 5.4003119 10.918152 18.118237 22.798441 27.358128 29.638968 36.358978 40.919662 46.437504 50.997192 56.637539 59.517971">Paweł Czapnik</tspan></text>
<text
           id="text138"
           style="font-variant:normal;font-weight:normal;font-stretch:normal;font-size:9.96000004px;font-family:'Cormorant SC';-inkscape-font-specification:CormorantSC-Regular;writing-mode:lr-tb;fill:#000000;fill-opacity:1;fill-rule:nonzero;stroke:none"
           transform="matrix(1,0,0,-1,212.4,556.6801)"><tspan
             id="tspan136"
             y="0"
             x="0 6.4799762 11.997816 17.277613 23.038477 27.600157 30.480589 36.119942 41.637779 43.918621 50.638634 55.198318 60.71616 65.275848 70.915199 73.795631">Karolina Czapnik</tspan></text>
</g></g><text
       id="text142"
       style="font-variant:normal;font-weight:normal;font-stretch:normal;font-size:9.96000004px;font-family:'Cormorant SC';-inkscape-font-specification:CormorantSC-Regular;writing-mode:lr-tb;fill:#000000;fill-opacity:1;fill-rule:nonzero;stroke:none"
       transform="matrix(1,0,0,-1,113.64,542.16)"><tspan
         id="tspan140"
         y="0"
         x="0 6.9600482 12.597408 18.234768 23.754601 26.034445 32.754456 37.31514 42.834972 47.396652 53.034012 55.912453 98.763359 106.323 111.84383 117.48119 120.35963 125.87946 128.1593 134.87932 139.43901 144.95883 149.52052 155.15788 158.03632">Anna CzapnikHania Czapnik</tspan></text>
<g
       id="g144"><g
         clip-path="url(#clipPath150)"
         id="g146"><text
           id="text154"
           style="font-variant:normal;font-weight:normal;font-stretch:normal;font-size:9.96000004px;font-family:'Cormorant SC';-inkscape-font-specification:CormorantSC-Regular;writing-mode:lr-tb;fill:#000000;fill-opacity:1;fill-rule:nonzero;stroke:none"
           transform="matrix(1,0,0,-1,105.48,527.64)"><tspan
             id="tspan152"
             y="0"
             x="0 6.9600482 12.600396 17.880192 20.758633 26.278463 31.915825 34.195667 40.91568 45.475368 50.996197 55.557877 61.195236 64.073677">Adrian Czapnik</tspan></text>
<text
           id="text158"
           style="font-variant:normal;font-weight:normal;font-stretch:normal;font-size:9.96000004px;font-family:'Cormorant SC';-inkscape-font-specification:CormorantSC-Regular;writing-mode:lr-tb;fill:#000000;fill-opacity:1;fill-rule:nonzero;stroke:none"
           transform="matrix(1,0,0,-1,212.4,527.64)"><tspan
             id="tspan156"
             y="0"
             x="0 8.2767601 13.7946 19.074396 23.874121 27.834215 30.714647 36.232487 38.513329 45.233341 49.794025 55.311863 59.871552 65.511902 68.391335">Marysia Czapnik</tspan></text>
</g></g><text
       id="text162"
       style="font-variant:normal;font-weight:normal;font-stretch:normal;font-size:9.96000004px;font-family:'Cormorant SC';-inkscape-font-specification:CormorantSC-Regular;writing-mode:lr-tb;fill:#000000;fill-opacity:1;fill-rule:nonzero;stroke:none"
       transform="matrix(1,0,0,-1,101.16,513.12)"><tspan
         id="tspan160"
         y="0"
         x="0 8.2767601 13.7946 19.074396 23.874121 27.834215 30.714647 36.232487 38.513329 45.233341 49.794025 55.311863 59.871552 65.511902 68.391335 111.24324 119.52 125.03784 130.43715 133.31758 137.99779 140.63719 142.91803 149.63805 154.19774 159.71558 164.27626 169.9156 172.79604">Marysia CzapnikMaciej Czapnik</tspan></text>
<g
       id="g164"><g
         clip-path="url(#clipPath170)"
         id="g166"><text
           id="text174"
           style="font-variant:normal;font-weight:normal;font-stretch:normal;font-size:9.96000004px;font-family:'Cormorant SC';-inkscape-font-specification:CormorantSC-Regular;writing-mode:lr-tb;fill:#000000;fill-opacity:1;fill-rule:nonzero;stroke:none"
           transform="matrix(1,0,0,-1,80.4,498.72)"><tspan
             id="tspan172"
             y="0"
             x="0 7.6791601 11.64324 17.403109 22.322351 27.84318 30.123024 36.482483 42.242352 49.442436 54.962269 60.242065 64.803741 69.60347 73.567551 78.129227 83.649063 89.04937">Osoba Towarzysząca</tspan></text>
<text
           id="text178"
           style="font-variant:normal;font-weight:normal;font-stretch:normal;font-size:9.96000004px;font-family:'Cormorant SC';-inkscape-font-specification:CormorantSC-Regular;writing-mode:lr-tb;fill:#000000;fill-opacity:1;fill-rule:nonzero;stroke:none"
           transform="matrix(1,0,0,-1,212.4,498.6)"><tspan
             id="tspan176"
             y="0"
             x="0 5.4003119 8.2787523 14.03862 18.95886 24.238655 26.518499 33.23851 37.799194 43.319027 47.880707 53.518066 56.396507">Piotr Czapnik</tspan></text>
</g></g><text
       id="text184"
       style="font-variant:normal;font-weight:normal;font-stretch:normal;font-size:9.96000004px;font-family:'Cormorant SC';-inkscape-font-specification:CormorantSC-Regular;writing-mode:lr-tb;fill:#000000;fill-opacity:1;fill-rule:nonzero;stroke:none"
       transform="matrix(1,0,0,-1,113.16,484.2)"><tspan
         id="tspan180"
         y="0"
         x="0 6.9600482 12.600396 17.2806 22.199844 27.717684 29.998524 35.518356 41.278225 46.918571 51.47826 56.158463">Aneta Budzeń</tspan><tspan
         id="tspan182"
         y="0.11952"
         x="99.24144 107.5182 113.03604 117.95528 122.63549 128.39536 132.35545 136.91614 139.19698 144.59729 147.47673 153.23659 158.51738 164.27725">Mateusz Piorun</tspan></text>
<g
       id="g186"><g
         clip-path="url(#clipPath192)"
         id="g188"><text
           id="text196"
           style="font-variant:normal;font-weight:normal;font-stretch:normal;font-size:9.96000004px;font-family:'Cormorant SC';-inkscape-font-specification:CormorantSC-Regular;writing-mode:lr-tb;fill:#000000;fill-opacity:1;fill-rule:nonzero;stroke:none"
           transform="matrix(1,0,0,-1,106.56,469.68)"><tspan
             id="tspan194"
             y="0"
             x="0 5.4003119 8.2787523 14.03862 18.95886 24.238655 28.918859 34.319172 36.599014 42.116856 47.876724 53.517071 58.076759 62.756966">Piotrek Budzeń</tspan></text>
<text
           id="text200"
           style="font-variant:normal;font-weight:normal;font-stretch:normal;font-size:9.96000004px;font-family:'Cormorant SC';-inkscape-font-specification:CormorantSC-Regular;writing-mode:lr-tb;fill:#000000;fill-opacity:1;fill-rule:nonzero;stroke:none"
           transform="matrix(1,0,0,-1,212.4,469.68)"><tspan
             id="tspan198"
             y="0"
             x="0 7.6791601 11.64324 17.403109 22.322351 27.84318 30.123024 36.482483 42.242352 49.442436 54.962269 60.242065 64.803741 69.60347 73.567551 78.129227 83.649063 89.04937">Osoba Towarzysząca</tspan></text>
</g></g><text
       id="text204"
       style="font-variant:normal;font-weight:normal;font-stretch:normal;font-size:9.96000004px;font-family:'Cormorant SC';-inkscape-font-specification:CormorantSC-Regular;writing-mode:lr-tb;fill:#000000;fill-opacity:1;fill-rule:nonzero;stroke:none"
       transform="matrix(1,0,0,-1,80.4,455.16)"><tspan
         id="tspan202"
         y="0"
         x="0 7.6791601 11.64324 17.403109 22.322351 27.84318 30.123024 36.482483 42.242352 49.442436 54.962269 60.242065 64.803741 69.60347 73.567551 78.129227 83.649063 89.04937 131.99988 140.27664 145.79448 150.35417 155.87399 161.63387 166.91466 172.4325 177.35274 182.87057 185.15141 190.55173 193.43117 199.19203 204.47183 210.23169">Osoba TowarzyszącaMałgorata Piorun</tspan></text>
<g
       id="g206"><g
         clip-path="url(#clipPath212)"
         id="g208"><text
           id="text216"
           style="font-variant:normal;font-weight:normal;font-stretch:normal;font-size:9.96000004px;font-family:'Cormorant SC';-inkscape-font-specification:CormorantSC-Regular;writing-mode:lr-tb;fill:#000000;fill-opacity:1;fill-rule:nonzero;stroke:none"
           transform="matrix(1,0,0,-1,103.32,440.52)"><tspan
             id="tspan214"
             y="0"
             x="0 6.9620399 12.24084 17.161079 22.920948 28.199747 30.479591 35.878906 41.157707 45.717396 50.51712 56.157467 61.677299 67.077614">Artur Przydacz</tspan></text>
<text
           id="text220"
           style="font-variant:normal;font-weight:normal;font-stretch:normal;font-size:9.96000004px;font-family:'Cormorant SC';-inkscape-font-specification:CormorantSC-Regular;writing-mode:lr-tb;fill:#000000;fill-opacity:1;fill-rule:nonzero;stroke:none"
           transform="matrix(1,0,0,-1,212.4,440.64)"><tspan
             id="tspan218"
             y="0"
             x="0 7.6791601 11.64324 17.403109 22.322351 27.84318 30.123024 36.482483 42.242352 49.442436 54.962269 60.242065 64.803741 69.60347 73.567551 78.129227 83.649063 89.04937">Osoba Towarzysząca</tspan></text>
</g></g><text
       id="text230"
       style="font-variant:normal;font-weight:normal;font-stretch:normal;font-size:9.96000004px;font-family:'Cormorant SC';-inkscape-font-specification:CormorantSC-Regular;writing-mode:lr-tb;fill:#000000;fill-opacity:1;fill-rule:nonzero;stroke:none"
       transform="matrix(1,0,0,-1,91.56,426)"><tspan
         id="tspan222"
         y="0"
         x="0 8.2767601 13.7946 19.074396 23.994637 28.794359 34.434708 39.952549 42.233387 47.633701 52.913494 57.473183 62.273903 67.913254 73.431099 78.830414">Martyna Przydacz</tspan><tspan
         id="tspan224"
         y="-0.11952"
         x="120.84468 125.76492 130.56465 135.12633 142.3264 145.20683 150.72469 153.00552 159.84505 165.12485 170.88472 175.4454 181.08475 185.64543 190.32564 197.52573 201.48582 206.88513">Sylwia Drożdżewska</tspan><tspan
         id="tspan226"
         y="14.40216"
         x="-17.75868 -12.358368 -6.840528 -1.920288 3.359508 8.1592321 13.559544 16.19994 21.717779 23.998619 30.839148 36.118942 41.878811 46.438499 52.07885 56.63953 61.318741 68.518822 72.47892 77.879234 120.84468 127.80473 133.44408 138.9649 145.80444 148.08429 154.9248 160.20461 165.96448 170.52615 176.1665 180.72818 185.40839 192.60847 196.56757 201.96788">Patrycja DrożdżewskaAdam Drożdżewski</tspan><tspan
         id="tspan228"
         y="28.92384"
         x="4.4421601 9.4819202 12.36036 16.920048 19.798489 24.360168 26.640013 33.482533 38.762329 44.522198 49.081882 54.722233 59.281921 63.962124 71.162209 75.122307 80.521622 120.84468 124.2012 129.72203 135.4819 140.76169 143.04153 149.88107 155.16187 160.92172 165.48341 171.12276 175.68443 180.36365 187.56374 191.52782 196.92813">Filip DrożdżewskiIgor Drożdżewski</tspan></text>
<g
       id="g232"><g
         clip-path="url(#clipPath238)"
         id="g234"><text
           id="text242"
           style="font-variant:normal;font-weight:normal;font-stretch:normal;font-size:24px;font-family:England;-inkscape-font-specification:England;writing-mode:lr-tb;fill:#000000;fill-opacity:1;fill-rule:nonzero;stroke:#000000;stroke-width:0.68599999;stroke-linecap:butt;stroke-linejoin:miter;stroke-miterlimit:10;stroke-dasharray:none;stroke-opacity:1"
           transform="matrix(1,0,0,-1,165.48,779.04)"><tspan
             id="tspan240"
             y="0"
             x="0 15.6 25.440001 33.360001 43.200001 49.200001">Stół 1</tspan></text>
</g></g></g></svg>