<?xml version="1.0" encoding="UTF-8" standalone="no"?>
<svg
   xmlns:dc="http://purl.org/dc/elements/1.1/"
   xmlns:cc="http://creativecommons.org/ns#"
   xmlns:rdf="http://www.w3.org/1999/02/22-rdf-syntax-ns#"
   xmlns:svg="http://www.w3.org/2000/svg"
   xmlns="http://www.w3.org/2000/svg"
   viewBox="0 0 793.59998 1122.24"
   height="1122.24"
   width="793.59998"
   xml:space="preserve"
   id="svg2"
   version="1.1"><metadata
     id="metadata8"><rdf:RDF><cc:Work
         rdf:about=""><dc:format>image/svg+xml</dc:format><dc:type
           rdf:resource="http://purl.org/dc/dcmitype/StillImage" /></cc:Work></rdf:RDF></metadata><defs
     id="defs6"><clipPath
       id="clipPath14"
       clipPathUnits="userSpaceOnUse"><path
         id="path12"
         d="M -14.4,14.4 H 580.8 V 856.08 H -14.4 Z" /></clipPath><clipPath
       id="clipPath24"
       clipPathUnits="userSpaceOnUse"><path
         id="path22"
         d="M 36.96,741.96 H 345.6 v 10.56 H 36.96 Z" /></clipPath><clipPath
       id="clipPath40"
       clipPathUnits="userSpaceOnUse"><path
         id="path38"
         d="M 36.96,727.44 H 345.6 v 13.559 H 36.96 Z" /></clipPath><clipPath
       id="clipPath64"
       clipPathUnits="userSpaceOnUse"><path
         id="path62"
         d="M 36.96,698.4 H 345.6 v 13.56 H 36.96 Z" /></clipPath><clipPath
       id="clipPath84"
       clipPathUnits="userSpaceOnUse"><path
         id="path82"
         d="M 36.96,669.36 H 345.6 v 13.56 H 36.96 Z" /></clipPath><clipPath
       id="clipPath108"
       clipPathUnits="userSpaceOnUse"><path
         id="path106"
         d="M 36.96,640.32 H 345.6 v 13.559 H 36.96 Z" /></clipPath><clipPath
       id="clipPath132"
       clipPathUnits="userSpaceOnUse"><path
         id="path130"
         d="M 36.96,611.28 H 345.6 v 13.56 H 36.96 Z" /></clipPath><clipPath
       id="clipPath156"
       clipPathUnits="userSpaceOnUse"><path
         id="path154"
         d="M 36.96,582.24 H 345.6 V 595.8 H 36.96 Z" /></clipPath><clipPath
       id="clipPath176"
       clipPathUnits="userSpaceOnUse"><path
         id="path174"
         d="M 36.96,553.2 H 345.6 v 13.559 H 36.96 Z" /></clipPath><clipPath
       id="clipPath196"
       clipPathUnits="userSpaceOnUse"><path
         id="path194"
         d="M 36.96,524.16 H 345.6 v 13.56 H 36.96 Z" /></clipPath><clipPath
       id="clipPath220"
       clipPathUnits="userSpaceOnUse"><path
         id="path218"
         d="M 36.96,495.12 H 345.6 v 13.56 H 36.96 Z" /></clipPath><clipPath
       id="clipPath242"
       clipPathUnits="userSpaceOnUse"><path
         id="path240"
         d="M 36.96,466.08 H 345.6 v 13.559 H 36.96 Z" /></clipPath><clipPath
       id="clipPath266"
       clipPathUnits="userSpaceOnUse"><path
         id="path264"
         d="M 36.96,437.04 H 345.6 V 450.6 H 36.96 Z" /></clipPath><clipPath
       id="clipPath302"
       clipPathUnits="userSpaceOnUse"><path
         id="path300"
         d="M 36.96,364.44 H 345.6 V 378 H 36.96 Z" /></clipPath><clipPath
       id="clipPath322"
       clipPathUnits="userSpaceOnUse"><path
         id="path320"
         d="M 36.96,335.4 H 345.6 v 13.559 H 36.96 Z" /></clipPath><clipPath
       id="clipPath338"
       clipPathUnits="userSpaceOnUse"><path
         id="path336"
         d="m 36.96,767.52 h 308.16 v 33.6 H 36.96 Z" /></clipPath></defs><g
     clip-path="url(#clipPath14)"
     transform="matrix(1.3333333,0,0,-1.3333333,19.2,1141.44)"
     id="g10"><path
       id="path16"
       style="fill:#ffffff;fill-opacity:1;fill-rule:nonzero;stroke:none"
       d="M 36.96,320.28 H 345.24 V 801.119 H 36.96 Z" /><g
       id="g18"><g
         clip-path="url(#clipPath24)"
         id="g20"><text
           id="text28"
           style="font-variant:normal;font-weight:normal;font-stretch:normal;font-size:9.96000004px;font-family:'Cormorant SC';-inkscape-font-specification:CormorantSC-Regular;writing-mode:lr-tb;fill:#000000;fill-opacity:1;fill-rule:nonzero;stroke:none"
           transform="matrix(1,0,0,-1,111.36,745.44)"><tspan
             id="tspan26"
             y="0"
             x="0 8.2767601 13.7946 19.193916 22.074348 26.754553 32.154865 34.435703 41.51527 46.076954 50.757156 55.677395">Maciek Gleba</tspan></text>
<text
           id="text32"
           style="font-variant:normal;font-weight:normal;font-stretch:normal;font-size:9.96000004px;font-family:'Cormorant SC';-inkscape-font-specification:CormorantSC-Regular;writing-mode:lr-tb;fill:#000000;fill-opacity:1;fill-rule:nonzero;stroke:none"
           transform="matrix(1,0,0,-1,208.44,745.5599)"><tspan
             id="tspan30"
             y="0"
             x="0 8.2767601 13.7946 16.434 21.951839 24.232679 31.432764 34.312199 38.992405 44.632751 49.19244 56.392525 59.272957 63.952164 69.352478 74.752785">Maja Niedźwiecka</tspan></text>
</g></g><g
       id="g34"><g
         clip-path="url(#clipPath40)"
         id="g36"><text
           id="text44"
           style="font-variant:normal;font-weight:normal;font-stretch:normal;font-size:9.96000004px;font-family:'Cormorant SC';-inkscape-font-specification:CormorantSC-Regular;writing-mode:lr-tb;fill:#000000;fill-opacity:1;fill-rule:nonzero;stroke:none"
           transform="matrix(1,0,0,-1,109.2,730.92)"><tspan
             id="tspan42"
             y="0"
             x="0 5.4003119 8.2787523 14.03862 18.95886 24.238655 28.918859 34.319172 36.600014 43.679581 48.240265 52.919472 57.83971">Piotrek Gleba</tspan></text>
<text
           id="text48"
           style="font-variant:normal;font-weight:normal;font-stretch:normal;font-size:9.96000004px;font-family:'Cormorant SC';-inkscape-font-specification:CormorantSC-Regular;writing-mode:lr-tb;fill:#000000;fill-opacity:1;fill-rule:nonzero;stroke:none"
           transform="matrix(1,0,0,-1,208.44,731.04)"><tspan
             id="tspan46"
             y="0"
             x="0 7.5596399 13.079472 18.716831 21.595272 27.115105 29.394947 36.596027 39.474468 44.154671 49.795021 54.35471 61.55479 64.433235 69.113434 74.513748 79.914062">Hania Niedźwiecka</tspan></text>
</g></g><text
       id="text52"
       style="font-variant:normal;font-weight:normal;font-stretch:normal;font-size:9.96000004px;font-family:'Cormorant SC';-inkscape-font-specification:CormorantSC-Regular;writing-mode:lr-tb;fill:#000000;fill-opacity:1;fill-rule:nonzero;stroke:none"
       transform="matrix(1,0,0,-1,107.28,716.4)"><tspan
         id="tspan50"
         y="0"
         x="0 8.2767601 13.7946 19.074396 21.953833 27.713699 31.674791 36.234482 38.51532 45.595882 50.157562 54.837769 59.758007">Mariusz Gleba</tspan></text>
<text
       id="text56"
       style="font-variant:normal;font-weight:normal;font-stretch:normal;font-size:9.96000004px;font-family:'Cormorant SC';-inkscape-font-specification:CormorantSC-Regular;writing-mode:lr-tb;fill:#000000;fill-opacity:1;fill-rule:nonzero;stroke:none"
       transform="matrix(1,0,0,-1,208.44372,716.51952)"><tspan
         id="tspan54"
         y="0"
         x="0 8.279748 13.79958 19.079376 24.479689 27.358128 32.995487 35.276329 42.477409 45.355846 50.036053 55.675404 60.236088 67.436172 70.314613 74.99482 80.395126 85.794441">Marcin Niedźwiecki</tspan></text>
<g
       id="g58"><g
         clip-path="url(#clipPath64)"
         id="g60"><text
           id="text68"
           style="font-variant:normal;font-weight:normal;font-stretch:normal;font-size:9.96000004px;font-family:'Cormorant SC';-inkscape-font-specification:CormorantSC-Regular;writing-mode:lr-tb;fill:#000000;fill-opacity:1;fill-rule:nonzero;stroke:none"
           transform="matrix(1,0,0,-1,115.8,701.88)"><tspan
             id="tspan66"
             y="0"
             x="0 6.9600482 12.600396 17.2806 22.199844 27.717684 29.998524 37.078091 41.639771 46.318981 51.23922">Aneta Gleba</tspan></text>
<text
           id="text72"
           style="font-variant:normal;font-weight:normal;font-stretch:normal;font-size:9.96000004px;font-family:'Cormorant SC';-inkscape-font-specification:CormorantSC-Regular;writing-mode:lr-tb;fill:#000000;fill-opacity:1;fill-rule:nonzero;stroke:none"
           transform="matrix(1,0,0,-1,208.44,701.9999)"><tspan
             id="tspan70"
             y="0"
             x="0 3.2399881 8.999856 13.559544 16.437984 21.957815 24.237659 31.43874 34.317181 38.996387 44.636738 49.196423 56.396507 59.274948 63.955151 69.354469 74.754784">Julia Niedźwiecka</tspan></text>
</g></g><text
       id="text76"
       style="font-variant:normal;font-weight:normal;font-stretch:normal;font-size:9.96000004px;font-family:'Cormorant SC';-inkscape-font-specification:CormorantSC-Regular;writing-mode:lr-tb;fill:#000000;fill-opacity:1;fill-rule:nonzero;stroke:none"
       transform="matrix(1,0,0,-1,97.56,687.36)"><tspan
         id="tspan74"
         y="0"
         x="0 6.9620399 12.24084 17.641151 23.160984 28.801332 31.681765 37.441631 41.40173 45.961414 48.242256 55.323814 59.883503 64.563705 69.483948 110.88468 118.08476 123.60261 128.52284 134.04068 138.60237 141.4828 147.00064 149.28148 156.36104 162.00139 164.88083 170.39867 176.03802 180.59871 183.47813">Arkadiusz GlebaNatalia Gniadzik</tspan></text>
<g
       id="g78"><g
         clip-path="url(#clipPath84)"
         id="g80"><text
           id="text88"
           style="font-variant:normal;font-weight:normal;font-stretch:normal;font-size:9.96000004px;font-family:'Cormorant SC';-inkscape-font-specification:CormorantSC-Regular;writing-mode:lr-tb;fill:#000000;fill-opacity:1;fill-rule:nonzero;stroke:none"
           transform="matrix(1,0,0,-1,107.64,672.84)"><tspan
             id="tspan86"
             y="0"
             x="0 5.4003119 12.600396 17.2806 21.842279 24.721716 30.362064 35.879906 38.160744 45.240311 49.801991 54.481201 59.40144">Ewelina Gleba</tspan></text>
<text
           id="text92"
           style="font-variant:normal;font-weight:normal;font-stretch:normal;font-size:9.96000004px;font-family:'Cormorant SC';-inkscape-font-specification:CormorantSC-Regular;writing-mode:lr-tb;fill:#000000;fill-opacity:1;fill-rule:nonzero;stroke:none"
           transform="matrix(1,0,0,-1,208.44,672.84)"><tspan
             id="tspan90"
             y="0"
             x="0 6.4799762 11.999808 17.279604 23.039473 27.600157 30.478596 36.115955 41.635788 43.91663 50.997192 56.634552 59.512993 65.032822 70.673172 75.232857 78.111298">Karolina Gniadzik</tspan></text>
</g></g><text
       id="text96"
       style="font-variant:normal;font-weight:normal;font-stretch:normal;font-size:9.96000004px;font-family:'Cormorant SC';-inkscape-font-specification:CormorantSC-Regular;writing-mode:lr-tb;fill:#000000;fill-opacity:1;fill-rule:nonzero;stroke:none"
       transform="matrix(1,0,0,-1,92.28,658.44)"><tspan
         id="tspan94"
         y="0"
         x="0 6.9600482 12.597408 18.117241 22.796448 27.357132 30.235573 35.635883 41.155716 43.435558 50.27808 54.958282 59.519962 64.439209 70.200073 74.759758">Angelika Deptuła</tspan></text>
<text
       id="text100"
       style="font-variant:normal;font-weight:normal;font-stretch:normal;font-size:9.96000004px;font-family:'Cormorant SC';-inkscape-font-specification:CormorantSC-Regular;writing-mode:lr-tb;fill:#000000;fill-opacity:1;fill-rule:nonzero;stroke:none"
       transform="matrix(1,0,0,-1,208.44348,658.32048)"><tspan
         id="tspan98"
         y="0"
         x="0 8.2767601 13.7946 19.074396 23.994637 28.794359 34.434708 39.952549 42.233387 47.75322 53.513088 58.79388 64.553749 69.954063">Martyna Boruch</tspan></text>
<g
       id="g102"><g
         clip-path="url(#clipPath108)"
         id="g104"><text
           id="text112"
           style="font-variant:normal;font-weight:normal;font-stretch:normal;font-size:9.96000004px;font-family:'Cormorant SC';-inkscape-font-specification:CormorantSC-Regular;writing-mode:lr-tb;fill:#000000;fill-opacity:1;fill-rule:nonzero;stroke:none"
           transform="matrix(1,0,0,-1,107.16,643.92)"><tspan
             id="tspan110"
             y="0"
             x="0 6.4799762 11.997816 18.838345 21.717779 26.279461 28.560301 35.400829 40.080036 44.64072 49.560959 55.320827 59.880516">Kamil Deptuła</tspan></text>
<text
           id="text116"
           style="font-variant:normal;font-weight:normal;font-stretch:normal;font-size:9.96000004px;font-family:'Cormorant SC';-inkscape-font-specification:CormorantSC-Regular;writing-mode:lr-tb;fill:#000000;fill-opacity:1;fill-rule:nonzero;stroke:none"
           transform="matrix(1,0,0,-1,208.44,643.8)"><tspan
             id="tspan114"
             y="0"
             x="0 6.4799762 12.239844 17.51964 23.157 27.837204 32.396893 35.275333 40.795162 43.076004 48.593845 54.35371 59.633507 65.393379 70.793686">Kornelia Boruch</tspan></text>
</g></g><text
       id="text120"
       style="font-variant:normal;font-weight:normal;font-stretch:normal;font-size:9.96000004px;font-family:'Cormorant SC';-inkscape-font-specification:CormorantSC-Regular;writing-mode:lr-tb;fill:#000000;fill-opacity:1;fill-rule:nonzero;stroke:none"
       transform="matrix(1,0,0,-1,97.56,629.4)"><tspan
         id="tspan118"
         y="0"
         x="0 5.4003119 12.600396 17.279604 21.840288 24.718727 30.356089 35.875919 38.155766 44.998283 49.67849 54.24017 59.159412 64.919281 69.479965">Ewelina Deptuła</tspan></text>
<text
       id="text124"
       style="font-variant:normal;font-weight:normal;font-stretch:normal;font-size:9.96000004px;font-family:'Cormorant SC';-inkscape-font-specification:CormorantSC-Regular;writing-mode:lr-tb;fill:#000000;fill-opacity:1;fill-rule:nonzero;stroke:none"
       transform="matrix(1,0,0,-1,208.44468,629.28048)"><tspan
         id="tspan122"
         y="0"
         x="0 8.2767601 11.157192 16.557505 22.797443 27.477648 32.03933 36.601009 41.281212 43.562054 49.082878 54.842747 60.122543 65.882416 71.282722">Michelle Boruch</tspan></text>
<g
       id="g126"><g
         clip-path="url(#clipPath132)"
         id="g128"><text
           id="text136"
           style="font-variant:normal;font-weight:normal;font-stretch:normal;font-size:9.96000004px;font-family:'Cormorant SC';-inkscape-font-specification:CormorantSC-Regular;writing-mode:lr-tb;fill:#000000;fill-opacity:1;fill-rule:nonzero;stroke:none"
           transform="matrix(1,0,0,-1,110.52,614.76)"><tspan
             id="tspan134"
             y="0"
             x="0 8.2767601 13.7946 19.074396 24.473713 27.354143 32.994492 35.275333 42.355896 46.917576 51.597778 56.517025">Marcin Gleba</tspan></text>
<text
           id="text140"
           style="font-variant:normal;font-weight:normal;font-stretch:normal;font-size:9.96000004px;font-family:'Cormorant SC';-inkscape-font-specification:CormorantSC-Regular;writing-mode:lr-tb;fill:#000000;fill-opacity:1;fill-rule:nonzero;stroke:none"
           transform="matrix(1,0,0,-1,208.44,614.8799)"><tspan
             id="tspan138"
             y="0"
             x="0 7.6791601 11.64324 17.403109 22.322351 27.84318 30.123024 36.482483 42.242352 49.442436 54.962269 60.242065 64.803741 69.60347 73.567551 78.129227 83.649063 89.04937">Osoba Towarzysząca</tspan></text>
</g></g><text
       id="text144"
       style="font-variant:normal;font-weight:normal;font-stretch:normal;font-size:9.96000004px;font-family:'Cormorant SC';-inkscape-font-specification:CormorantSC-Regular;writing-mode:lr-tb;fill:#000000;fill-opacity:1;fill-rule:nonzero;stroke:none"
       transform="matrix(1,0,0,-1,107.64,600.24)"><tspan
         id="tspan142"
         y="0"
         x="0 5.4003119 12.600396 17.2806 21.842279 24.721716 30.362064 35.879906 38.160744 45.240311 49.801991 54.481201 59.40144">Ewelina Gleba</tspan></text>
<text
       id="text148"
       style="font-variant:normal;font-weight:normal;font-stretch:normal;font-size:9.96000004px;font-family:'Cormorant SC';-inkscape-font-specification:CormorantSC-Regular;writing-mode:lr-tb;fill:#000000;fill-opacity:1;fill-rule:nonzero;stroke:none"
       transform="matrix(1,0,0,-1,208.4352,600.24)"><tspan
         id="tspan146"
         y="0"
         x="0 5.4003119 10.920144 15.840384 21.119184 25.918907 31.31922 33.60006 39.120888 44.880756 50.159557 55.919422 61.319736">Patryk Boruch</tspan></text>
<g
       id="g150"><g
         clip-path="url(#clipPath156)"
         id="g152"><text
           id="text160"
           style="font-variant:normal;font-weight:normal;font-stretch:normal;font-size:9.96000004px;font-family:'Cormorant SC';-inkscape-font-specification:CormorantSC-Regular;writing-mode:lr-tb;fill:#000000;fill-opacity:1;fill-rule:nonzero;stroke:none"
           transform="matrix(1,0,0,-1,110.64,585.84)"><tspan
             id="tspan158"
             y="0"
             x="0 8.2767601 11.157192 16.557505 22.797443 28.315285 32.874973 35.155811 42.235378 46.797058 51.477264 56.397503">Michał Gleba</tspan></text>
<text
           id="text164"
           style="font-variant:normal;font-weight:normal;font-stretch:normal;font-size:9.96000004px;font-family:'Cormorant SC';-inkscape-font-specification:CormorantSC-Regular;writing-mode:lr-tb;fill:#000000;fill-opacity:1;fill-rule:nonzero;stroke:none"
           transform="matrix(1,0,0,-1,208.44,585.72)"><tspan
             id="tspan162"
             y="0"
             x="0 5.8764 11.636268 16.195955 21.713797 27.354143 32.994492 38.512333 40.793171 47.873737 53.391575 59.031925 64.791794 71.631325 75.591423 80.99173">Zuzanna Gadomska</tspan></text>
</g></g><text
       id="text168"
       style="font-variant:normal;font-weight:normal;font-stretch:normal;font-size:9.96000004px;font-family:'Cormorant SC';-inkscape-font-specification:CormorantSC-Regular;writing-mode:lr-tb;fill:#000000;fill-opacity:1;fill-rule:nonzero;stroke:none"
       transform="matrix(1,0,0,-1,109.2,571.32)"><tspan
         id="tspan166"
         y="0"
         x="0 5.4003119 8.2787523 14.03862 18.95886 24.238655 26.518499 33.361019 38.041225 42.602905 47.523144 53.283012 57.842701 99.24144 104.64175 110.15959 117.35967 122.03988 126.59957 128.8804 135.72093 141.4808 145.4409 150.0006 155.51843">Piotr DeptułaPaweł Duszak</tspan></text>
<g
       id="g170"><g
         clip-path="url(#clipPath176)"
         id="g172"><text
           id="text180"
           style="font-variant:normal;font-weight:normal;font-stretch:normal;font-size:9.96000004px;font-family:'Cormorant SC';-inkscape-font-specification:CormorantSC-Regular;writing-mode:lr-tb;fill:#000000;fill-opacity:1;fill-rule:nonzero;stroke:none"
           transform="matrix(1,0,0,-1,105.84,556.8)"><tspan
             id="tspan178"
             y="0"
             x="0 6.4799762 11.997816 17.277613 23.038477 27.600157 29.880997 36.721523 41.40173 45.961414 50.881657 56.641525 61.201214">Karol Deptuła</tspan></text>
<text
           id="text184"
           style="font-variant:normal;font-weight:normal;font-stretch:normal;font-size:9.96000004px;font-family:'Cormorant SC';-inkscape-font-specification:CormorantSC-Regular;writing-mode:lr-tb;fill:#000000;fill-opacity:1;fill-rule:nonzero;stroke:none"
           transform="matrix(1,0,0,-1,208.44,556.6801)"><tspan
             id="tspan182"
             y="0"
             x="0 6.4799762 11.997816 16.918056 22.435896 27.715693 32.276375 37.076099 42.71645 48.234287 50.515129 57.475178 62.036858 66.717056 73.917145 76.796577 82.196892">Katarzyna Ulewicz</tspan></text>
</g></g><text
       id="text188"
       style="font-variant:normal;font-weight:normal;font-stretch:normal;font-size:9.96000004px;font-family:'Cormorant SC';-inkscape-font-specification:CormorantSC-Regular;writing-mode:lr-tb;fill:#000000;fill-opacity:1;fill-rule:nonzero;stroke:none"
       transform="matrix(1,0,0,-1,92.4,542.16)"><tspan
         id="tspan186"
         y="0"
         x="0 5.4003119 10.920144 15.840384 21.119184 25.918907 31.31922 33.958618 39.478451 41.759293 47.159603 52.919472 58.198273 62.878475 69.719002 74.639244 116.04396 124.32072 129.83856 134.7578 139.438 145.19788 149.15797 153.71866 155.9995 162.47948 167.99731 172.55701 178.07484 183.71419">Patrycja PorembaMateusz Kazana</tspan></text>
<g
       id="g190"><g
         clip-path="url(#clipPath196)"
         id="g192"><text
           id="text200"
           style="font-variant:normal;font-weight:normal;font-stretch:normal;font-size:9.96000004px;font-family:'Cormorant SC';-inkscape-font-specification:CormorantSC-Regular;writing-mode:lr-tb;fill:#000000;fill-opacity:1;fill-rule:nonzero;stroke:none"
           transform="matrix(1,0,0,-1,106.92,527.76)"><tspan
             id="tspan198"
             y="0"
             x="0 6.7200122 12.237852 16.440971 21.958813 26.519497 28.800337 35.63987 40.320072 44.880756 49.800995 55.560863 60.120552">Rafał Deptuła</tspan></text>
<text
           id="text204"
           style="font-variant:normal;font-weight:normal;font-stretch:normal;font-size:9.96000004px;font-family:'Cormorant SC';-inkscape-font-specification:CormorantSC-Regular;writing-mode:lr-tb;fill:#000000;fill-opacity:1;fill-rule:nonzero;stroke:none"
           transform="matrix(1,0,0,-1,208.44,527.7599)"><tspan
             id="tspan202"
             y="0"
             x="0 7.6791601 11.64324 17.403109 22.322351 27.84318 30.123024 36.482483 42.242352 49.442436 54.962269 60.242065 64.803741 69.60347 73.567551 78.129227 83.649063 89.04937">Osoba Towarzysząca</tspan></text>
</g></g><text
       id="text208"
       style="font-variant:normal;font-weight:normal;font-stretch:normal;font-size:9.96000004px;font-family:'Cormorant SC';-inkscape-font-specification:CormorantSC-Regular;writing-mode:lr-tb;fill:#000000;fill-opacity:1;fill-rule:nonzero;stroke:none"
       transform="matrix(1,0,0,-1,99.12,513.12)"><tspan
         id="tspan206"
         y="0"
         x="0 3.2399881 8.999856 14.517696 20.158045 25.798391 31.316233 33.597073 40.077049 45.594887 52.434422 57.114624 62.514935 67.914253">Joanna Kamecka</tspan></text>
<text
       id="text212"
       style="font-variant:normal;font-weight:normal;font-stretch:normal;font-size:9.96000004px;font-family:'Cormorant SC';-inkscape-font-specification:CormorantSC-Regular;writing-mode:lr-tb;fill:#000000;fill-opacity:1;fill-rule:nonzero;stroke:none"
       transform="matrix(1,0,0,-1,208.44096,513.12)"><tspan
         id="tspan210"
         y="0"
         x="0 8.2767601 13.7946 18.713844 23.394049 29.153915 33.114014 37.674698 39.955536 46.435513 53.635597 56.515034 62.032871 66.95311 72.352425 78.112297 85.312378 89.272476 94.672791">Mateusz Kwiatkowski</tspan></text>
<g
       id="g214"><g
         clip-path="url(#clipPath220)"
         id="g216"><text
           id="text224"
           style="font-variant:normal;font-weight:normal;font-stretch:normal;font-size:9.96000004px;font-family:'Cormorant SC';-inkscape-font-specification:CormorantSC-Regular;writing-mode:lr-tb;fill:#000000;fill-opacity:1;fill-rule:nonzero;stroke:none"
           transform="matrix(1,0,0,-1,104.52,498.72)"><tspan
             id="tspan222"
             y="0"
             x="0 6.4799762 11.997816 17.277613 23.038477 27.600157 29.880997 36.961559 42.479401 47.039089 52.559917 57.119602 62.519917">Karol Gałązka</tspan></text>
<text
           id="text228"
           style="font-variant:normal;font-weight:normal;font-stretch:normal;font-size:9.96000004px;font-family:'Cormorant SC';-inkscape-font-specification:CormorantSC-Regular;writing-mode:lr-tb;fill:#000000;fill-opacity:1;fill-rule:nonzero;stroke:none"
           transform="matrix(1,0,0,-1,208.44,498.6)"><tspan
             id="tspan226"
             y="0"
             x="0 6.4799762 11.997816 17.277613 23.038477 27.600157 30.480589 36.119942 41.637779 43.918621 50.398598 57.598679 60.478115 65.995956 70.915199 76.315514 82.075378 89.275467 93.235558 98.635872">Karolina Kwiatkowska</tspan></text>
</g></g><text
       id="text234"
       style="font-variant:normal;font-weight:normal;font-stretch:normal;font-size:9.96000004px;font-family:'Cormorant SC';-inkscape-font-specification:CormorantSC-Regular;writing-mode:lr-tb;fill:#000000;fill-opacity:1;fill-rule:nonzero;stroke:none"
       transform="matrix(1,0,0,-1,58.44,484.08)"><tspan
         id="tspan230"
         y="0"
         x="0 6.4799762 11.997816 16.918056 22.435896 27.715693 32.276375 37.076099 42.71645 48.234287 50.515129 57.715214 63.476074 70.676163 76.194 81.114243 86.513557 89.39399 94.074188 101.27428 104.15371 109.55402">Katarzyna Nowatkiewicz</tspan><tspan
         id="tspan232"
         y="-0.11952"
         x="149.9976 155.39792 160.91576 165.836 171.11578 175.91551 181.31583 183.59666 189.1165 194.63733 200.03664 204.59732 209.27753">Patryk Bączek</tspan></text>
<g
       id="g236"><g
         clip-path="url(#clipPath242)"
         id="g238"><text
           id="text246"
           style="font-variant:normal;font-weight:normal;font-stretch:normal;font-size:9.96000004px;font-family:'Cormorant SC';-inkscape-font-specification:CormorantSC-Regular;writing-mode:lr-tb;fill:#000000;fill-opacity:1;fill-rule:nonzero;stroke:none"
           transform="matrix(1,0,0,-1,95.4,469.56)"><tspan
             id="tspan244"
             y="0"
             x="0 8.2767601 13.7946 18.713844 23.394049 29.153915 33.114014 37.674698 39.955536 45.355846 50.873688 56.153484 60.714169 65.513893 70.913208">Mateusz Parzych</tspan></text>
<text
           id="text250"
           style="font-variant:normal;font-weight:normal;font-stretch:normal;font-size:9.96000004px;font-family:'Cormorant SC';-inkscape-font-specification:CormorantSC-Regular;writing-mode:lr-tb;fill:#000000;fill-opacity:1;fill-rule:nonzero;stroke:none"
           transform="matrix(1,0,0,-1,208.44,469.56)"><tspan
             id="tspan248"
             y="0"
             x="0 6.4799762 11.997816 16.918056 22.435896 27.715693 32.276375 37.076099 42.71645 48.234287 50.515129 57.235142 60.115574 66.955101 72.715965 78.115288 84.356216 90.116089 97.31617 101.27627 106.67558">Katarzyna Cimochowska</tspan></text>
</g></g><text
       id="text254"
       style="font-variant:normal;font-weight:normal;font-stretch:normal;font-size:9.96000004px;font-family:'Cormorant SC';-inkscape-font-specification:CormorantSC-Regular;writing-mode:lr-tb;fill:#000000;fill-opacity:1;fill-rule:nonzero;stroke:none"
       transform="matrix(1,0,0,-1,111,455.04)"><tspan
         id="tspan252"
         y="0"
         x="0 6.4799762 11.041656 16.559496 22.319365 27.958715 30.839148 36.356987 38.637829 45.117805 50.397598 56.157467">Klaudia Kruk</tspan></text>
<text
       id="text258"
       style="font-variant:normal;font-weight:normal;font-stretch:normal;font-size:9.96000004px;font-family:'Cormorant SC';-inkscape-font-specification:CormorantSC-Regular;writing-mode:lr-tb;fill:#000000;fill-opacity:1;fill-rule:nonzero;stroke:none"
       transform="matrix(1,0,0,-1,208.43868,455.15952)"><tspan
         id="tspan256"
         y="0"
         x="0 5.1602759 10.920144 16.320456 21.838297 25.798391 30.35808 32.63892 37.559158 42.479401 47.997238 51.957336 54.837769 60.35561">Łukasz Stasiak</tspan></text>
<g
       id="g260"><g
         clip-path="url(#clipPath266)"
         id="g262"><text
           id="text270"
           style="font-variant:normal;font-weight:normal;font-stretch:normal;font-size:9.96000004px;font-family:'Cormorant SC';-inkscape-font-specification:CormorantSC-Regular;writing-mode:lr-tb;fill:#000000;fill-opacity:1;fill-rule:nonzero;stroke:none"
           transform="matrix(1,0,0,-1,102.72,440.64)"><tspan
             id="tspan268"
             y="0"
             x="0 5.1602759 10.920144 16.320456 21.838297 25.798391 30.35808 32.63892 38.03923 43.557072 48.837864 53.397552 58.197277 63.597588">Łukasz Parzych</tspan></text>
<text
           id="text274"
           style="font-variant:normal;font-weight:normal;font-stretch:normal;font-size:9.96000004px;font-family:'Cormorant SC';-inkscape-font-specification:CormorantSC-Regular;writing-mode:lr-tb;fill:#000000;fill-opacity:1;fill-rule:nonzero;stroke:none"
           transform="matrix(1,0,0,-1,208.44,440.5201)"><tspan
             id="tspan272"
             y="0"
             x="0 6.4799762 9.3604078 14.99976 20.520588 26.038427 28.319267 33.8391 39.356941 44.637733 49.557972 54.957287 60.718151 67.917236 71.877335 77.277649">Kinga Bartkowska</tspan></text>
</g></g><text
       id="text278"
       style="font-variant:normal;font-weight:normal;font-stretch:normal;font-size:9.96000004px;font-family:'Cormorant SC';-inkscape-font-specification:CormorantSC-Regular;writing-mode:lr-tb;fill:#000000;fill-opacity:1;fill-rule:nonzero;stroke:none"
       transform="matrix(1,0,0,-1,114.24,426)"><tspan
         id="tspan276"
         y="0"
         x="0 5.4003119 10.918152 16.67802 21.2397 24.120132 29.760481 35.27832 37.559158 44.039135 49.799004 53.759102">Paulina Kusz</tspan></text>
<text
       id="text282"
       style="font-variant:normal;font-weight:normal;font-stretch:normal;font-size:9.96000004px;font-family:'Cormorant SC';-inkscape-font-specification:CormorantSC-Regular;writing-mode:lr-tb;fill:#000000;fill-opacity:1;fill-rule:nonzero;stroke:none"
       transform="matrix(1,0,0,-1,208.44168,426)"><tspan
         id="tspan280"
         y="0"
         x="0 6.360456 12.120324 18.959856 24.477695 28.437792 32.998474 35.279316 41.759293 47.519161 54.719242 60.237083 64.798767 70.199074 74.758766 79.558487">Tomasz Kowalczyk</tspan></text>
<text
       id="text286"
       style="font-variant:normal;font-weight:normal;font-stretch:normal;font-size:9.96000004px;font-family:'Cormorant SC';-inkscape-font-specification:CormorantSC-Regular;writing-mode:lr-tb;fill:#000000;fill-opacity:1;fill-rule:nonzero;stroke:none"
       transform="matrix(1,0,0,-1,91.20252,411.47832)"><tspan
         id="tspan284"
         y="0"
         x="0 6.3594599 12.120324 18.959856 24.479689 28.443768 33.005447 35.286289 40.806122 46.325951 51.726265 57.966206 64.806732 70.566597 75.846397">Tomasz Bachmura</tspan></text>
<text
       id="text294"
       style="font-variant:normal;font-weight:normal;font-stretch:normal;font-size:9.96000004px;font-family:'Cormorant SC';-inkscape-font-specification:CormorantSC-Regular;writing-mode:lr-tb;fill:#000000;fill-opacity:1;fill-rule:nonzero;stroke:none"
       transform="matrix(1,0,0,-1,208.44168,411.47832)"><tspan
         id="tspan288"
         y="0"
         x="0 8.2767601 13.7946 19.074396 23.994637 29.512476 31.793316 38.273293 44.033161 51.233246 56.751083 61.312763 66.713074 71.272766 76.072487">Marta Kowalczyk</tspan><tspan
         id="tspan290"
         y="14.52168"
         x="-109.91856 -103.43858 -98.876907 -93.359062 -87.599197 -81.959846 -79.079414 -73.561569 -71.280731 -66.360489 -61.799809 -56.281967 -51.361729 -46.800049 -41.282207 0 5.4003119 8.2787523 14.03862 18.95886 24.238655 26.518499 33.719582 39.479446 46.679531 49.557972 54.957287 60.357601">Klaudia SzablakPiotr Nowicki</tspan><tspan
         id="tspan292"
         y="28.92384"
         x="-101.16372 -92.886963 -90.006531 -84.606216 -78.36628 -72.848434 -68.28875 -66.007912 -60.608593 -54.848724 -50.888626 -45.968388 -41.288185 0 7.6791601 11.64324 17.403109 22.322351 27.84318 30.123024 36.482483 42.242352 49.442436 54.962269 60.242065 64.803741 69.60347 73.567551 78.129227 83.649063 89.04937">Michał PostekOsoba Towarzysząca</tspan></text>
<g
       id="g296"><g
         clip-path="url(#clipPath302)"
         id="g298"><text
           id="text306"
           style="font-variant:normal;font-weight:normal;font-stretch:normal;font-size:9.96000004px;font-family:'Cormorant SC';-inkscape-font-specification:CormorantSC-Regular;writing-mode:lr-tb;fill:#000000;fill-opacity:1;fill-rule:nonzero;stroke:none"
           transform="matrix(1,0,0,-1,78,368.04)"><tspan
             id="tspan304"
             y="0"
             x="0 7.6791601 11.64324 17.403109 22.322351 27.84318 30.123024 36.482483 42.242352 49.442436 54.962269 60.242065 64.803741 69.60347 73.567551 78.129227 83.649063 89.04937">Osoba Towarzysząca</tspan></text>
<text
           id="text310"
           style="font-variant:normal;font-weight:normal;font-stretch:normal;font-size:9.96000004px;font-family:'Cormorant SC';-inkscape-font-specification:CormorantSC-Regular;writing-mode:lr-tb;fill:#000000;fill-opacity:1;fill-rule:nonzero;stroke:none"
           transform="matrix(1,0,0,-1,208.44,367.92)"><tspan
             id="tspan308"
             y="0"
             x="0 6.9600482 12.597408 18.234768 23.754601 26.034445 35.275333 41.035198 43.674599 49.074913 51.953354 56.632561 62.032871 68.272812 74.032677 81.232765 85.192863 90.592178">Anna Wojciechowska</tspan></text>
</g></g><text
       id="text314"
       style="font-variant:normal;font-weight:normal;font-stretch:normal;font-size:9.96000004px;font-family:'Cormorant SC';-inkscape-font-specification:CormorantSC-Regular;writing-mode:lr-tb;fill:#000000;fill-opacity:1;fill-rule:nonzero;stroke:none"
       transform="matrix(1,0,0,-1,78,353.52)"><tspan
         id="tspan312"
         y="0"
         x="0 7.6791601 11.64324 17.403109 22.322351 27.84318 30.123024 36.482483 42.242352 49.442436 54.962269 60.242065 64.803741 69.60347 73.567551 78.129227 83.649063 89.04937 130.43616 138.71292 144.23076 149.63008 152.51051 157.19072 159.83011 162.11095 168.59093 173.87073 178.4304 183.11061 189.95114 192.83058 197.51079">Osoba TowarzyszącaMaciej Krzemień</tspan></text>
<g
       id="g316"><g
         clip-path="url(#clipPath322)"
         id="g318"><text
           id="text326"
           style="font-variant:normal;font-weight:normal;font-stretch:normal;font-size:9.96000004px;font-family:'Cormorant SC';-inkscape-font-specification:CormorantSC-Regular;writing-mode:lr-tb;fill:#000000;fill-opacity:1;fill-rule:nonzero;stroke:none"
           transform="matrix(1,0,0,-1,75.12,339)"><tspan
             id="tspan324"
             y="0"
             x="0 6.4799762 11.997816 16.918056 22.435896 27.715693 32.276375 37.076099 42.71645 48.234287 50.515129 56.035957 61.553795 66.833595 74.033676 76.914108 82.553459 86.513557 91.913872">Katarzyna Barwińska</tspan></text>
<text
           id="text330"
           style="font-variant:normal;font-weight:normal;font-stretch:normal;font-size:9.96000004px;font-family:'Cormorant SC';-inkscape-font-specification:CormorantSC-Regular;writing-mode:lr-tb;fill:#000000;fill-opacity:1;fill-rule:nonzero;stroke:none"
           transform="matrix(1,0,0,-1,208.44,338.88)"><tspan
             id="tspan328"
             y="0"
             x="0 8.2767601 13.7946 19.074396 23.994637 28.794359 34.434708 39.952549 42.233387 50.510147 56.027988 61.547821 67.188171 71.747856 74.627289 80.145134">Martyna Magdziak</tspan></text>
</g></g><g
       id="g332"><g
         clip-path="url(#clipPath338)"
         id="g334"><text
           id="text342"
           style="font-variant:normal;font-weight:normal;font-stretch:normal;font-size:24px;font-family:England;-inkscape-font-specification:England;writing-mode:lr-tb;fill:#000000;fill-opacity:1;fill-rule:nonzero;stroke:#000000;stroke-width:0.68599999;stroke-linecap:butt;stroke-linejoin:miter;stroke-miterlimit:10;stroke-dasharray:none;stroke-opacity:1"
           transform="matrix(1,0,0,-1,162.24,779.04)"><tspan
             id="tspan340"
             y="0"
             x="0 15.6 25.440001 33.360001 43.200001 49.200001">Stół 3</tspan></text>
</g></g></g></svg>