<?xml version="1.0" encoding="UTF-8" standalone="no"?>
<svg
   xmlns:dc="http://purl.org/dc/elements/1.1/"
   xmlns:cc="http://creativecommons.org/ns#"
   xmlns:rdf="http://www.w3.org/1999/02/22-rdf-syntax-ns#"
   xmlns:svg="http://www.w3.org/2000/svg"
   xmlns="http://www.w3.org/2000/svg"
   viewBox="0 0 793.59998 1122.24"
   height="1122.24"
   width="793.59998"
   xml:space="preserve"
   id="svg2"
   version="1.1"><metadata
     id="metadata8"><rdf:RDF><cc:Work
         rdf:about=""><dc:format>image/svg+xml</dc:format><dc:type
           rdf:resource="http://purl.org/dc/dcmitype/StillImage" /></cc:Work></rdf:RDF></metadata><defs
     id="defs6"><clipPath
       id="clipPath14"
       clipPathUnits="userSpaceOnUse"><path
         id="path12"
         d="M -14.4,14.4 H 580.8 V 856.08 H -14.4 Z" /></clipPath><clipPath
       id="clipPath28"
       clipPathUnits="userSpaceOnUse"><path
         id="path26"
         d="m 125.76,779.76 h 312.961 v 21.36 H 125.76 Z" /></clipPath></defs><g
     clip-path="url(#clipPath14)"
     transform="matrix(1.3333333,0,0,-1.3333333,19.2,1141.44)"
     id="g10"><path
       id="path16"
       style="fill:#ffffff;fill-opacity:1;fill-rule:nonzero;stroke:none"
       d="m 36.96,770.4 h 490.08 v 30.72 H 36.96 Z" /><text
       id="text20"
       style="font-variant:normal;font-weight:normal;font-stretch:normal;font-size:6.36000013px;font-family:'Cormorant SC';-inkscape-font-specification:CormorantSC-Regular;writing-mode:lr-tb;fill:#000000;fill-opacity:1;fill-rule:nonzero;stroke:none"
       transform="matrix(1,0,0,-1,79.60344,772.8)"><tspan
         id="tspan18"
         y="0"
         x="0 5.2800722 7.2001562 10.679712 14.640084 18.239843 21.119652 22.557013 27.356903 31.076868 34.436855 37.553257 41.153652 44.75341 48.233604 51.113411 54.833378 58.312931 69.811813 75.091881 78.692284 82.051636 85.531822 88.531837 91.531845 93.451935 97.051689 100.65145 102.08881 106.16875 109.04856 112.76852 115.28835 117.20844 120.8082 123.32867 126.80823 130.40799 141.90686 145.38705 148.98682 152.58722 156.18697 159.78673 161.22409 166.50352 169.38397 173.10394 176.70369 180.30345 188.92761 192.40717 196.00757 199.60733 201.04469 206.32475 209.20457 212.92453 216.52493 219.6445 226.83131 228.87096 232.47136 235.95091 239.67088 242.79109 244.22845 248.78857 251.66838 255.38835 258.86853 262.82828 266.54825 271.10837 273.62817 277.10837 279.02847 286.21527 290.2952 293.29523 296.8956 300.61557 304.21533 306.13541 309.73517 311.17255 315.85287 319.45264 323.0524 326.77234 329.29282 332.17264 335.17264 339.73276 342.25259 345.73215">Michał Horbańczuk Marcelina Kłosińska Panna Młoda Pan Młody Jakub Głuchowski Klaudia Naguszewska</tspan></text>
<g
       id="g22"><g
         clip-path="url(#clipPath28)"
         id="g24"><text
           id="text32"
           style="font-variant:normal;font-weight:normal;font-stretch:normal;font-size:15.35999966px;font-family:England;-inkscape-font-specification:England;writing-mode:lr-tb;fill:#000000;fill-opacity:1;fill-rule:nonzero;stroke:#000000;stroke-width:0.43900001;stroke-linecap:butt;stroke-linejoin:miter;stroke-miterlimit:10;stroke-dasharray:none;stroke-opacity:1"
           transform="matrix(1,0,0,-1,218.52,786.96)"><tspan
             id="tspan30"
             y="0"
             x="0 10.079232 16.438272 21.599232 27.958273 31.918079 46.078465 50.279423 56.039425 59.879425 66.238464 74.394623 78.594048 82.553856 95.63443 101.99501 107.15443 114.83443 120.47462 123.59424">Stół Pańśtwa Młodych</tspan></text>
</g></g></g></svg>